<?xml version="1.0" encoding="us-ascii" standalone="no"?><svg xmlns="http://www.w3.org/2000/svg" xmlns:xlink="http://www.w3.org/1999/xlink" contentStyleType="text/css" height="904px" preserveAspectRatio="none" style="width:1259px;height:904px;background:#FFFFFF;" version="1.1" viewBox="0 0 1259 904" width="1259px" zoomAndPan="magnify"><defs><filter height="1" id="b1s1fpmiykndf20" width="1" x="0" y="0"><feFlood flood-color="#FFFF00" result="flood"/><feComposite in="SourceGraphic" in2="flood" operator="over"/></filter><filter height="1" id="b1s1fpmiykndf21" width="1" x="0" y="0"><feFlood flood-color="#00FFFF" result="flood"/><feComposite in="SourceGraphic" in2="flood" operator="over"/></filter><filter height="1" id="b1s1fpmiykndf22" width="1" x="0" y="0"><feFlood flood-color="#FFA500" result="flood"/><feComposite in="SourceGraphic" in2="flood" operator="over"/></filter></defs><g><text fill="#000000" font-family="sans-serif" font-size="14" font-weight="bold" lengthAdjust="spacing" textLength="391" x="427" y="25.1074">Keyple - keyple-card-generic-java-lib - 3.0.+ (2023-10-04)</text><rect fill="#DDDDDD" height="103.1055" id="_legend" rx="7.5" ry="7.5" style="stroke:#000000;stroke-width:1.0;" width="255" x="495" y="51.6211"/><text fill="#000000" font-family="sans-serif" font-size="14" lengthAdjust="spacing" text-decoration="underline" textLength="88" x="500" y="71.7285">Colors legend</text><text fill="#000000" font-family="sans-serif" font-size="14" lengthAdjust="spacing" textLength="4" x="592" y="71.7285">:</text><ellipse cx="505.5" cy="86.3633" fill="#000000" rx="2.5" ry="2.5" style="stroke:#000000;stroke-width:0.0;"/><text fill="#000000" font-family="sans-serif" font-size="14" lengthAdjust="spacing" text-decoration="underline" textLength="148" x="512" y="90.3496">External API references</text><text fill="#000000" font-family="sans-serif" font-size="14" lengthAdjust="spacing" textLength="4" x="664" y="90.3496">:</text><rect fill="#000000" height="3.5" style="stroke:#000000;stroke-width:0.0;" width="3.5" x="509" y="102.4844"/><text fill="#0000FF" filter="url(#b1s1fpmiykndf20)" font-family="sans-serif" font-size="14" font-weight="bold" lengthAdjust="spacing" textLength="163" x="516" y="108.9707">keypop-reader-java-api</text><rect fill="#000000" height="3.5" style="stroke:#000000;stroke-width:0.0;" width="3.5" x="509" y="121.1055"/><text fill="#000000" filter="url(#b1s1fpmiykndf21)" font-family="sans-serif" font-size="14" font-weight="bold" lengthAdjust="spacing" textLength="170" x="516" y="127.5918">keyple-common-java-api</text><rect fill="#000000" height="3.5" style="stroke:#000000;stroke-width:0.0;" width="3.5" x="509" y="139.7266"/><text fill="#000000" filter="url(#b1s1fpmiykndf22)" font-family="sans-serif" font-size="14" font-weight="bold" lengthAdjust="spacing" textLength="229" x="516" y="146.2129">keyple-service-resource-java-lib</text><!--cluster generic--><g id="cluster_generic"><path d="M8.5,173.7402 L231.5,173.7402 A3.75,3.75 0 0 1 234,176.2402 L241,198.3613 L1249.5,198.3613 A2.5,2.5 0 0 1 1252,200.8613 L1252,895.2402 A2.5,2.5 0 0 1 1249.5,897.7402 L8.5,897.7402 A2.5,2.5 0 0 1 6,895.2402 L6,176.2402 A2.5,2.5 0 0 1 8.5,173.7402 " fill="#F8F9F9" style="stroke:#000000;stroke-width:1.5;"/><line style="stroke:#000000;stroke-width:1.5;" x1="6" x2="241" y1="198.3613" y2="198.3613"/><text fill="#000000" font-family="sans-serif" font-size="14" font-weight="bold" lengthAdjust="spacing" textLength="222" x="10" y="190.8477">org.eclipse.keyple.card.generic</text></g><!--class GenericExtensionService--><g id="elem_GenericExtensionService"><rect codeLine="63" fill="#E9F7EF" height="253.4531" id="GenericExtensionService" rx="2.5" ry="2.5" style="stroke:#27AE60;stroke-width:2.0;" width="1064" x="97" y="210.7402"/><ellipse cx="523.25" cy="234.3613" fill="#ADD1B2" rx="11" ry="11" style="stroke:#181818;stroke-width:1.0;"/><path d="M526.0156,230.2363 Q526.1719,230.0176 526.3594,229.9082 Q526.5469,229.7988 526.7656,229.7988 Q527.1406,229.7988 527.375,230.0645 Q527.6094,230.3145 527.6094,230.9238 L527.6094,232.377 Q527.6094,232.9863 527.375,233.252 Q527.1406,233.5176 526.7656,233.5176 Q526.4219,233.5176 526.2188,233.3145 Q526.0156,233.127 525.9063,232.6113 Q525.8594,232.252 525.6719,232.0645 Q525.3438,231.6895 524.7344,231.4707 Q524.125,231.252 523.5,231.252 Q522.7344,231.252 522.0938,231.5801 Q521.4688,231.9082 520.9688,232.6582 Q520.4844,233.4082 520.4844,234.4395 L520.4844,235.5332 Q520.4844,236.7676 521.375,237.5957 Q522.2656,238.4082 523.8594,238.4082 Q524.7969,238.4082 525.4531,238.1582 Q525.8438,238.002 526.2656,237.5645 Q526.5313,237.2988 526.6719,237.2207 Q526.8281,237.1426 527.0313,237.1426 Q527.3594,237.1426 527.6094,237.4082 Q527.875,237.6582 527.875,238.002 Q527.875,238.3457 527.5313,238.752 Q527.0313,239.3301 526.2344,239.6582 Q525.1563,240.1113 523.8594,240.1113 Q522.3438,240.1113 521.1406,239.4863 Q520.1563,238.9863 519.4688,237.9238 Q518.7813,236.8457 518.7813,235.5645 L518.7813,234.4082 Q518.7813,233.0801 519.3906,231.9395 Q520.0156,230.7832 521.1094,230.1738 Q522.2031,229.5488 523.4375,229.5488 Q524.1719,229.5488 524.8125,229.7207 Q525.4688,229.877 526.0156,230.2363 Z " fill="#000000"/><ellipse cx="548.75" cy="233.8613" fill="#84BE84" rx="3" ry="3" style="stroke:#038048;stroke-width:1.0;"/><text fill="#000000" font-family="sans-serif" font-size="14" lengthAdjust="spacing" textLength="16" x="567.25" y="230.8477">&lt;&lt;</text><text fill="#000000" filter="url(#b1s1fpmiykndf21)" font-family="sans-serif" font-size="14" lengthAdjust="spacing" textLength="135" x="583.25" y="230.8477">KeypleCardExtension</text><text fill="#000000" font-family="sans-serif" font-size="14" lengthAdjust="spacing" textLength="16" x="718.25" y="230.8477">&gt;&gt;</text><text fill="#000000" font-family="sans-serif" font-size="14" font-weight="bold" lengthAdjust="spacing" textLength="30" x="554.75" y="249.4688">final</text><text fill="#000000" font-family="sans-serif" font-size="14" lengthAdjust="spacing" textLength="158" x="588.75" y="249.4688">GenericExtensionService</text><line style="stroke:#27AE60;stroke-width:2.0;" x1="98" x2="1160" y1="257.9824" y2="257.9824"/><line style="stroke:#27AE60;stroke-width:1.0;" x1="98" x2="1160" y1="265.9824" y2="265.9824"/><ellipse cx="108" cy="280.793" fill="#84BE84" rx="3" ry="3" style="stroke:#038048;stroke-width:1.0;"/><text fill="#000000" font-family="sans-serif" font-size="14" lengthAdjust="spacing" text-decoration="underline" textLength="249" x="117" y="285.0898">GenericExtensionService getInstance ()</text><text fill="#000000" font-family="sans-serif" font-size="14" lengthAdjust="spacing" textLength="4" x="117" y="303.7109">&#160;</text><ellipse cx="108" cy="318.0352" fill="#84BE84" rx="3" ry="3" style="stroke:#038048;stroke-width:1.0;"/><text fill="#0000FF" font-family="sans-serif" font-size="14" lengthAdjust="spacing" textLength="458" x="117" y="322.332">GenericCardSelectionExtension createGenericCardSelectionExtension ()</text><ellipse cx="108" cy="336.6563" fill="#84BE84" rx="3" ry="3" style="stroke:#038048;stroke-width:1.0;"/><text fill="#000000" filter="url(#b1s1fpmiykndf22)" font-family="sans-serif" font-size="14" lengthAdjust="spacing" textLength="193" x="117" y="340.9531">CardResourceProfileExtension</text><text fill="#000000" font-family="sans-serif" font-size="14" lengthAdjust="spacing" textLength="242" x="314" y="340.9531">createCardResourceProfileExtension (</text><text fill="#0000FF" filter="url(#b1s1fpmiykndf20)" font-family="sans-serif" font-size="14" lengthAdjust="spacing" textLength="185" x="556" y="340.9531">IsoCardSelector cardSelector</text><text fill="#000000" font-family="sans-serif" font-size="14" lengthAdjust="spacing" textLength="414" x="741" y="340.9531">, GenericCardSelectionExtension genericCardSelectionExtension)</text><ellipse cx="108" cy="355.2773" fill="#84BE84" rx="3" ry="3" style="stroke:#038048;stroke-width:1.0;"/><text fill="#000000" font-family="sans-serif" font-size="14" lengthAdjust="spacing" textLength="321" x="117" y="359.5742">CardTransactionManager createCardTransaction (</text><text fill="#000000" filter="url(#b1s1fpmiykndf20)" font-family="sans-serif" font-size="14" lengthAdjust="spacing" textLength="78" x="438" y="359.5742">CardReader</text><text fill="#000000" font-family="sans-serif" font-size="14" lengthAdjust="spacing" textLength="79" x="520" y="359.5742">cardReader,</text><text fill="#000000" filter="url(#b1s1fpmiykndf20)" font-family="sans-serif" font-size="14" lengthAdjust="spacing" textLength="68" x="603" y="359.5742">SmartCard</text><text fill="#000000" font-family="sans-serif" font-size="14" lengthAdjust="spacing" textLength="33" x="675" y="359.5742">card)</text><text fill="#000000" font-family="sans-serif" font-size="14" lengthAdjust="spacing" textLength="4" x="117" y="378.1953">&#160;</text><ellipse cx="108" cy="415.1406" fill="#84BE84" rx="3" ry="3" style="stroke:#038048;stroke-width:1.0;"/><text fill="#000000" font-family="sans-serif" font-size="14" lengthAdjust="spacing" textLength="199" x="117" y="419.4375">String getCommonApiVersion ()</text><ellipse cx="108" cy="433.7617" fill="#84BE84" rx="3" ry="3" style="stroke:#038048;stroke-width:1.0;"/><text fill="#000000" font-family="sans-serif" font-size="14" lengthAdjust="spacing" textLength="190" x="117" y="438.0586">String getReaderApiVersion ()</text><ellipse cx="108" cy="452.3828" fill="#84BE84" rx="3" ry="3" style="stroke:#038048;stroke-width:1.0;"/><text fill="#000000" font-family="sans-serif" font-size="14" lengthAdjust="spacing" textLength="174" x="117" y="456.6797">String getCardApiVersion ()</text><line style="stroke:#27AE60;stroke-width:1.0;" x1="98" x2="553.5" y1="395.0195" y2="395.0195"/><text fill="#000000" font-family="sans-serif" font-size="14" font-weight="bold" lengthAdjust="spacing" textLength="151" x="553.5" y="400.3164">KeypleCardExtension</text><line style="stroke:#27AE60;stroke-width:1.0;" x1="704.5" x2="1160" y1="395.0195" y2="395.0195"/></g><!--class GenericCardSelectionExtension--><g id="elem_GenericCardSelectionExtension"><rect codeLine="76" fill="#FEFECE" height="81.8633" id="GenericCardSelectionExtension" rx="2.5" ry="2.5" style="stroke:#D4AC0D;stroke-width:2.0;" width="501" x="22.5" y="581.7402"/><ellipse cx="163.25" cy="605.3613" fill="#B4A7E5" rx="11" ry="11" style="stroke:#181818;stroke-width:1.0;"/><path d="M164.2031,602.002 L164.2031,608.6582 L165.9219,608.6582 Q166.5313,608.6582 166.7969,608.8926 Q167.0625,609.127 167.0625,609.5176 Q167.0625,609.8926 166.7969,610.127 Q166.5313,610.3613 165.9219,610.3613 L160.7813,610.3613 Q160.1719,610.3613 159.9063,610.127 Q159.6406,609.8926 159.6406,609.502 Q159.6406,609.127 159.9063,608.8926 Q160.1719,608.6582 160.7813,608.6582 L162.5,608.6582 L162.5,602.002 L160.7813,602.002 Q160.1719,602.002 159.9063,601.7676 Q159.6406,601.5332 159.6406,601.1426 Q159.6406,600.7676 159.9063,600.5332 Q160.1719,600.2988 160.7813,600.2988 L165.9219,600.2988 Q166.5313,600.2988 166.7969,600.5332 Q167.0625,600.7676 167.0625,601.1426 Q167.0625,601.5332 166.7969,601.7676 Q166.5313,602.002 165.9219,602.002 L164.2031,602.002 Z " fill="#000000"/><ellipse cx="188.75" cy="604.8613" fill="#84BE84" rx="3" ry="3" style="stroke:#038048;stroke-width:1.0;"/><text fill="#0000FF" font-family="sans-serif" font-size="14" font-style="italic" lengthAdjust="spacing" textLength="16" x="203.75" y="601.8477">&lt;&lt;</text><text fill="#0000FF" filter="url(#b1s1fpmiykndf20)" font-family="sans-serif" font-size="14" font-style="italic" lengthAdjust="spacing" textLength="150" x="219.75" y="601.8477">CardSelectionExtension</text><text fill="#0000FF" font-family="sans-serif" font-size="14" font-style="italic" lengthAdjust="spacing" textLength="16" x="369.75" y="601.8477">&gt;&gt;</text><text fill="#0000FF" font-family="sans-serif" font-size="14" font-style="italic" lengthAdjust="spacing" textLength="200" x="194.75" y="620.4688">GenericCardSelectionExtension</text><line style="stroke:#D4AC0D;stroke-width:2.0;" x1="23.5" x2="522.5" y1="628.9824" y2="628.9824"/><line style="stroke:#D4AC0D;stroke-width:2.0;" x1="23.5" x2="522.5" y1="636.9824" y2="636.9824"/><ellipse cx="33.5" cy="651.793" fill="#84BE84" rx="3" ry="3" style="stroke:#038048;stroke-width:1.0;"/><text fill="#000000" font-family="sans-serif" font-size="14" lengthAdjust="spacing" textLength="475" x="42.5" y="656.0898">GenericCardSelectionExtension addSuccessfulStatusWord (int statusWord)</text></g><!--class CardTransactionManager--><g id="elem_CardTransactionManager"><rect codeLine="79" fill="#FEFECE" height="159.7266" id="CardTransactionManager" rx="2.5" ry="2.5" style="stroke:#D4AC0D;stroke-width:2.0;" width="677" x="558.5" y="542.7402"/><ellipse cx="805.75" cy="558.7402" fill="#B4A7E5" rx="11" ry="11" style="stroke:#181818;stroke-width:1.0;"/><path d="M806.7031,555.3809 L806.7031,562.0371 L808.4219,562.0371 Q809.0313,562.0371 809.2969,562.2715 Q809.5625,562.5059 809.5625,562.8965 Q809.5625,563.2715 809.2969,563.5059 Q809.0313,563.7402 808.4219,563.7402 L803.2813,563.7402 Q802.6719,563.7402 802.4063,563.5059 Q802.1406,563.2715 802.1406,562.8809 Q802.1406,562.5059 802.4063,562.2715 Q802.6719,562.0371 803.2813,562.0371 L805,562.0371 L805,555.3809 L803.2813,555.3809 Q802.6719,555.3809 802.4063,555.1465 Q802.1406,554.9121 802.1406,554.5215 Q802.1406,554.1465 802.4063,553.9121 Q802.6719,553.6777 803.2813,553.6777 L808.4219,553.6777 Q809.0313,553.6777 809.2969,553.9121 Q809.5625,554.1465 809.5625,554.5215 Q809.5625,554.9121 809.2969,555.1465 Q809.0313,555.3809 808.4219,555.3809 L806.7031,555.3809 Z " fill="#000000"/><ellipse cx="831.25" cy="558.2402" fill="#84BE84" rx="3" ry="3" style="stroke:#038048;stroke-width:1.0;"/><text fill="#000000" font-family="sans-serif" font-size="14" font-style="italic" lengthAdjust="spacing" textLength="163" x="837.25" y="564.5371">CardTransactionManager</text><line style="stroke:#D4AC0D;stroke-width:2.0;" x1="559.5" x2="1234.5" y1="574.7402" y2="574.7402"/><line style="stroke:#D4AC0D;stroke-width:2.0;" x1="559.5" x2="1234.5" y1="582.7402" y2="582.7402"/><ellipse cx="569.5" cy="597.5508" fill="#84BE84" rx="3" ry="3" style="stroke:#038048;stroke-width:1.0;"/><text fill="#000000" font-family="sans-serif" font-size="14" lengthAdjust="spacing" textLength="400" x="578.5" y="601.8477">CardTransactionManager prepareApdu (String apduCommand)</text><ellipse cx="569.5" cy="616.1719" fill="#84BE84" rx="3" ry="3" style="stroke:#038048;stroke-width:1.0;"/><text fill="#000000" font-family="sans-serif" font-size="14" lengthAdjust="spacing" textLength="398" x="578.5" y="620.4688">CardTransactionManager prepareApdu (byte[] apduCommand)</text><ellipse cx="569.5" cy="634.793" fill="#84BE84" rx="3" ry="3" style="stroke:#038048;stroke-width:1.0;"/><text fill="#000000" font-family="sans-serif" font-size="14" lengthAdjust="spacing" textLength="616" x="578.5" y="639.0898">CardTransactionManager prepareApdu (byte cla, byte ins, byte p1, byte p2, byte[] dataIn, Byte le)</text><text fill="#000000" font-family="sans-serif" font-size="14" lengthAdjust="spacing" textLength="4" x="578.5" y="657.7109">&#160;</text><ellipse cx="569.5" cy="672.0352" fill="#84BE84" rx="3" ry="3" style="stroke:#038048;stroke-width:1.0;"/><text fill="#000000" font-family="sans-serif" font-size="14" lengthAdjust="spacing" textLength="262" x="578.5" y="676.332">List&lt;byte[]&gt; processApdusToByteArrays (</text><text fill="#0000FF" font-family="sans-serif" font-size="14" lengthAdjust="spacing" textLength="199" x="840.5" y="676.332">ChannelControl channelControl</text><text fill="#000000" font-family="sans-serif" font-size="14" lengthAdjust="spacing" textLength="190" x="1039.5" y="676.332">) throws TransactionException</text><ellipse cx="569.5" cy="690.6563" fill="#84BE84" rx="3" ry="3" style="stroke:#038048;stroke-width:1.0;"/><text fill="#000000" font-family="sans-serif" font-size="14" lengthAdjust="spacing" textLength="262" x="578.5" y="694.9531">List&lt;String&gt; processApdusToHexStrings (</text><text fill="#0000FF" font-family="sans-serif" font-size="14" lengthAdjust="spacing" textLength="199" x="840.5" y="694.9531">ChannelControl channelControl</text><text fill="#000000" font-family="sans-serif" font-size="14" lengthAdjust="spacing" textLength="190" x="1039.5" y="694.9531">) throws TransactionException</text></g><!--class ChannelControl--><g id="elem_ChannelControl"><rect codeLine="87" fill="#E9F7EF" height="85.2422" id="ChannelControl" rx="2.5" ry="2.5" style="stroke:#27AE60;stroke-width:2.0;" width="142" x="633" y="789.2402"/><ellipse cx="648" cy="805.2402" fill="#EB937F" rx="11" ry="11" style="stroke:#181818;stroke-width:1.0;"/><path d="M646.8594,806.0371 L646.8594,808.5371 L651.1875,808.5371 L651.1875,807.6152 Q651.1875,807.0059 651.4219,806.7402 Q651.6719,806.4746 652.0469,806.4746 Q652.4219,806.4746 652.6563,806.7402 Q652.8906,807.0059 652.8906,807.6152 L652.8906,810.2402 L644.8906,810.2402 Q644.2656,810.2402 644,810.0059 Q643.75,809.7715 643.75,809.3809 Q643.75,809.0059 644.0156,808.7715 Q644.2813,808.5371 644.8906,808.5371 L645.1563,808.5371 L645.1563,801.8809 L644.8906,801.8809 Q644.2656,801.8809 644,801.6465 Q643.75,801.4121 643.75,801.0215 Q643.75,800.6465 644,800.4121 Q644.2656,800.1777 644.8906,800.1777 L652.5156,800.1777 L652.5156,802.7715 Q652.5156,803.3809 652.2813,803.6465 Q652.0625,803.8965 651.6719,803.8965 Q651.2969,803.8965 651.0625,803.6465 Q650.8281,803.3809 650.8281,802.7715 L650.8281,801.8809 L646.8594,801.8809 L646.8594,804.334 L648.3438,804.334 Q648.3438,803.6777 648.4688,803.4902 Q648.7344,803.084 649.2031,803.084 Q649.5781,803.084 649.8125,803.3496 Q650.0469,803.5996 650.0469,804.209 L650.0469,806.1777 Q650.0469,806.7246 649.9219,806.9121 Q649.6563,807.3027 649.2031,807.3027 Q648.7344,807.3027 648.4688,806.8965 Q648.3438,806.709 648.3438,806.0371 L646.8594,806.0371 Z " fill="#000000"/><ellipse cx="667" cy="804.7402" fill="#84BE84" rx="3" ry="3" style="stroke:#038048;stroke-width:1.0;"/><text fill="#0000FF" font-family="sans-serif" font-size="14" lengthAdjust="spacing" textLength="99" x="673" y="811.0371">ChannelControl</text><line style="stroke:#27AE60;stroke-width:2.0;" x1="634" x2="774" y1="821.2402" y2="821.2402"/><text fill="#0000FF" font-family="sans-serif" font-size="14" lengthAdjust="spacing" textLength="82" x="639" y="840.3477">KEEP_OPEN</text><text fill="#0000FF" font-family="sans-serif" font-size="14" lengthAdjust="spacing" textLength="101" x="639" y="858.9688">CLOSE_AFTER</text><line style="stroke:#27AE60;stroke-width:2.0;" x1="634" x2="774" y1="866.4824" y2="866.4824"/></g><!--class TransactionException--><g id="elem_TransactionException"><rect codeLine="91" fill="#E9F7EF" height="100.4844" id="TransactionException" rx="2.5" ry="2.5" style="stroke:#27AE60;stroke-width:2.0;" width="390" x="810" y="781.7402"/><ellipse cx="910.25" cy="805.3613" fill="#ADD1B2" rx="11" ry="11" style="stroke:#181818;stroke-width:1.0;"/><path d="M913.0156,801.2363 Q913.1719,801.0176 913.3594,800.9082 Q913.5469,800.7988 913.7656,800.7988 Q914.1406,800.7988 914.375,801.0645 Q914.6094,801.3145 914.6094,801.9238 L914.6094,803.377 Q914.6094,803.9863 914.375,804.252 Q914.1406,804.5176 913.7656,804.5176 Q913.4219,804.5176 913.2188,804.3145 Q913.0156,804.127 912.9063,803.6113 Q912.8594,803.252 912.6719,803.0645 Q912.3438,802.6895 911.7344,802.4707 Q911.125,802.252 910.5,802.252 Q909.7344,802.252 909.0938,802.5801 Q908.4688,802.9082 907.9688,803.6582 Q907.4844,804.4082 907.4844,805.4395 L907.4844,806.5332 Q907.4844,807.7676 908.375,808.5957 Q909.2656,809.4082 910.8594,809.4082 Q911.7969,809.4082 912.4531,809.1582 Q912.8438,809.002 913.2656,808.5645 Q913.5313,808.2988 913.6719,808.2207 Q913.8281,808.1426 914.0313,808.1426 Q914.3594,808.1426 914.6094,808.4082 Q914.875,808.6582 914.875,809.002 Q914.875,809.3457 914.5313,809.752 Q914.0313,810.3301 913.2344,810.6582 Q912.1563,811.1113 910.8594,811.1113 Q909.3438,811.1113 908.1406,810.4863 Q907.1563,809.9863 906.4688,808.9238 Q905.7813,807.8457 905.7813,806.5645 L905.7813,805.4082 Q905.7813,804.0801 906.3906,802.9395 Q907.0156,801.7832 908.1094,801.1738 Q909.2031,800.5488 910.4375,800.5488 Q911.1719,800.5488 911.8125,800.7207 Q912.4688,800.877 913.0156,801.2363 Z " fill="#000000"/><ellipse cx="935.75" cy="804.8613" fill="#84BE84" rx="3" ry="3" style="stroke:#038048;stroke-width:1.0;"/><text fill="#000000" font-family="sans-serif" font-size="14" lengthAdjust="spacing" textLength="129" x="962.25" y="801.8477">&#171;RuntimeException&#187;</text><text fill="#000000" font-family="sans-serif" font-size="14" font-weight="bold" lengthAdjust="spacing" textLength="30" x="941.75" y="820.4688">final</text><text fill="#000000" font-family="sans-serif" font-size="14" lengthAdjust="spacing" textLength="136" x="975.75" y="820.4688">TransactionException</text><line style="stroke:#27AE60;stroke-width:2.0;" x1="811" x2="1199" y1="828.9824" y2="828.9824"/><line style="stroke:#27AE60;stroke-width:2.0;" x1="811" x2="1199" y1="836.9824" y2="836.9824"/><ellipse cx="821" cy="851.793" fill="#84BE84" rx="3" ry="3" style="stroke:#038048;stroke-width:1.0;"/><text fill="#000000" font-family="sans-serif" font-size="14" lengthAdjust="spacing" textLength="248" x="830" y="856.0898">TransactionException (String message)</text><ellipse cx="821" cy="870.4141" fill="#84BE84" rx="3" ry="3" style="stroke:#038048;stroke-width:1.0;"/><text fill="#000000" font-family="sans-serif" font-size="14" lengthAdjust="spacing" textLength="364" x="830" y="874.7109">TransactionException (String message, Throwable cause)</text></g><!--link GenericExtensionService to GenericCardSelectionExtension--><g id="link_GenericExtensionService_GenericCardSelectionExtension"><path codeLine="101" d="M471.299,463.8252 C417.921,506.3322 366.7706,547.0666 327.9966,577.9436 " fill="none" id="GenericExtensionService-to-GenericCardSelectionExtension" style="stroke:#3498DB;stroke-width:2.0;stroke-dasharray:7.0,7.0;"/><polygon fill="#3498DB" points="323.303,581.6812,332.8352,579.2038,327.2143,578.5665,327.8516,572.9457,323.303,581.6812" style="stroke:#3498DB;stroke-width:2.0;"/><polygon fill="#000000" points="430.0887,506.5005,438.9951,503.1649,435.3335,498.5668,430.0887,506.5005" style="stroke:#000000;stroke-width:1.0;"/><text fill="#000000" font-family="sans-serif" font-size="13" lengthAdjust="spacing" textLength="36" x="443" y="508.7686">create</text></g><!--link GenericExtensionService to CardTransactionManager--><g id="link_GenericExtensionService_CardTransactionManager"><path codeLine="102" d="M747.719,463.8252 C773.061,490.6332 795.0192,513.8621 818.1492,538.3291 " fill="none" id="GenericExtensionService-to-CardTransactionManager" style="stroke:#3498DB;stroke-width:2.0;stroke-dasharray:7.0,7.0;"/><polygon fill="#3498DB" points="822.271,542.6892,818.995,533.4012,818.8361,539.0558,813.1815,538.897,822.271,542.6892" style="stroke:#3498DB;stroke-width:2.0;"/><polygon fill="#000000" points="795.4348,507.0192,791.3569,498.4273,787.0855,502.4651,795.4348,507.0192" style="stroke:#000000;stroke-width:1.0;"/><text fill="#000000" font-family="sans-serif" font-size="13" lengthAdjust="spacing" textLength="36" x="801" y="508.7686">create</text></g><!--link CardTransactionManager to ChannelControl--><g id="link_CardTransactionManager_ChannelControl"><path codeLine="104" d="M823.209,702.8842 C795.86,732.2162 770.0226,759.9277 746.9956,784.6257 " fill="none" id="CardTransactionManager-to-ChannelControl" style="stroke:#27AE60;stroke-width:2.0;stroke-dasharray:7.0,7.0;"/><polygon fill="#27AE60" points="742.904,789.0142,751.967,785.1592,746.3137,785.3572,746.1157,779.7038,742.904,789.0142" style="stroke:#27AE60;stroke-width:2.0;"/><polygon fill="#000000" points="795.5903,746.0428,803.9081,741.4313,799.609,737.423,795.5903,746.0428" style="stroke:#000000;stroke-width:1.0;"/><text fill="#000000" font-family="sans-serif" font-size="13" lengthAdjust="spacing" textLength="21" x="808" y="747.7686">use</text></g><!--link CardTransactionManager to TransactionException--><g id="link_CardTransactionManager_TransactionException"><path codeLine="105" d="M938.292,702.8842 C952.108,729.3632 964.3235,752.7778 976.5895,776.2868 " fill="none" id="CardTransactionManager-to-TransactionException" style="stroke:#2C3E50;stroke-width:2.0;stroke-dasharray:7.0,7.0;"/><polygon fill="#2C3E50" points="979.365,781.6062,978.7481,771.7767,977.0521,777.1733,971.6555,775.4773,979.365,781.6062" style="stroke:#2C3E50;stroke-width:2.0;"/><polygon fill="#000000" points="967.3129,746.8187,965.7345,737.44,960.5233,740.1589,967.3129,746.8187" style="stroke:#000000;stroke-width:1.0;"/><text fill="#000000" font-family="sans-serif" font-size="13" lengthAdjust="spacing" textLength="31" x="974" y="747.7686">throw</text></g><!--SRC=[jLTHSzeu47xdL-mb3qr8W0H8QHZAZB7bDjCqoGHwdSpT3QFO0jmOsIF9JPbC__kjP0CsCT3EpV4aLj_kjxlQNSagK26h0Fu-iKKSCgZ1ardKF2hysfHn9WAlzer-fxKmUCJjLlsiVW97pRDcgtP-LZjh7rSOzq4PGvKtyFuzZ3wIpmGN-DUEaf0bGa8WPS8a-0owC5Cgbjr6OwRceHU5aV0Ydycw5yqR4z5Gz35aDAdvw4EgNIB2fGocl1Q7L3KgV_Xi4d06zlZ3FNau1_UTU-bUReYRu3RTbjlU4BU0N90EsKItmUau0yVP45-0RTckqzmGluM1OxViJavyVNNp2LhjotVE82VzCYJGx5ZaxLbEEFfuV_iLcdQBN9pf5DPgC5IB4DEbPbI17_4t2fuZyGJFWPe1Py_mdGaPH1oY2M0Ak4hc8QfLv5F0Oohe7AHYWaLg4JDh40cV2Lid6WwjIyTst5BWLG4uQ5iTSb4Aj8iM7UTyq2m5aWAG32vRI6tY8pUEzZUdPOTKoXG_cWNU4sTIGjwi9KJqdDz2Imyi3AFdLrQezpGLKSBzZDabBh59ELa6STgMVUQWoNlcxx7Nwmdcz_jerY4EiNUONI59futbKPa5MFzBuJfDo7gN26owlSInWHdkDh7TpaxkDVWTQRSjPqc_aXSyU0oJ_VmQPE8Pk1VkO2Vx4fgrGCQTIGlC7mHZV2_rLACCzwNR8UvExXKsQxMCV2dUP5_y2ld2S5jOHsGVju5cxRocNXIPqr5ftzwCoCt83CkGJSqaZM8paCTZOr52AX-FeMlaLTmXFz0Gfo5OTrSWs0IjSe_9DQOAFJDPkoRXlKSCgBimpTAlLlM4Z-AQO1JTJcSxZODgjTVGkFxAWj7o5fHdElfMYERpYE_JYGJbKxRMaany3po6Z39A12wMzybQNqUU1bgfn2YXKmO7aPZMcHS6iMJrr5HTNqlrx5ew02eXMyEBSU74qmS21xrUpllqQhDHK-UDwy6PqVRxV_Dg5SSm3T7v3wcf5MYOkcrejkpbgYfrGFzmi2sN9ozIKHLuFxSQc39rnH64vmT7nvMrPlu0CsKTmf25p5DeO6K9F3n9nNPZqFJQSlwGDFu-EvSx4Ks2a6rcAIFOXOIZhVLs9QErJpXglToVZA3NCChzKzWTn7JNRYv03HXXU98Qo6VAiPn4BepS9dgUzpODKZV6AlYLv1GAqE6S2gNnUMJk1F6QgrPBQWyhBLyXGoK2FjLrO9lcikBWp-nspn_Q6fOwinUcEL-3VgPj4d0S81EADNTGEBZUgsIyJdIkTtwvHlCzjELmr_rpiXj8VN-OU3Zkv2G9XzXUYVoA4nYEC2YGg_zRujrI6ozxgoSM36S-is8_WQCipHJ_w5EZt3_-FGEF2yN- -kS_6W2STgTWLW6NsIe-NowQwG9fVAhe5J-5WPQ7B3zchWEfUYciZmoHpgjcaAD8e_7LHHUosDxsZ7BEGZlYIaGXU8M_oru-niShFjWav08XFpmMwyK6VPhDJVgFx4UwyV_GPvN1U38lDa7HlgdS3SgoeP-ty8cGk_7j7RaftRMlRuTaRBaZSfztP7LptITS1NEsyhPuIPN5OtmisoZrzAGKkIpfEHu0Ljlnxy5FOQJJhR_JS0mcaYsxxwT-w5XIHbv0jQBC7ZxNriFjb_JTi-rchDVxUqR6OVQPrSr6E_Ht6jlILYLMAbkWnagn5WxJZxekOD2ekKEnD8-7oy-_RbgmcjmaQ3Xwk4u_efVFeULBvt3vcVk2oVqN]--></g></svg>