<svg xmlns="http://www.w3.org/2000/svg" xmlns:xlink="http://www.w3.org/1999/xlink" contentStyleType="text/css" data-diagram-type="CLASS" height="487px" preserveAspectRatio="none" style="width:1099px;height:487px;background:#FFFFFF;" version="1.1" viewBox="0 0 1099 487" width="1099px" zoomAndPan="magnify"><title>Keyple - keyple-card-generic-java-lib - 4.0+ (2026-03-11)</title><defs><filter height="1" id="b19fkrt6xp0dib0" width="1" x="0" y="0"><feFlood flood-color="#FFFF00" result="flood"/><feComposite in="SourceGraphic" in2="flood" operator="over"/></filter><filter height="1" id="b19fkrt6xp0dib1" width="1" x="0" y="0"><feFlood flood-color="#00FFFF" result="flood"/><feComposite in="SourceGraphic" in2="flood" operator="over"/></filter><filter height="1" id="b19fkrt6xp0dib2" width="1" x="0" y="0"><feFlood flood-color="#FFA500" result="flood"/><feComposite in="SourceGraphic" in2="flood" operator="over"/></filter><filter height="1" id="b19fkrt6xp0dib3" width="1" x="0" y="0"><feFlood flood-color="#FFC0CB" result="flood"/><feComposite in="SourceGraphic" in2="flood" operator="over"/></filter></defs><g><g class="title" data-source-line="1"><text fill="#000000" font-family="sans-serif" font-size="14" font-weight="bold" lengthAdjust="spacing" textLength="368.4434" x="358.2783" y="25.1074">Keyple - keyple-card-generic-java-lib - 4.0+ (2026-03-11)</text></g><g class="legend" data-source-line="54"><rect fill="#DDDDDD" height="121.7266" rx="7.5" ry="7.5" style="stroke:#000000;stroke-width:1;" width="239.2266" x="422.8867" y="51.6211"/><text fill="#000000" font-family="sans-serif" font-size="14" lengthAdjust="spacing" text-decoration="underline" textLength="86.3857" x="427.8867" y="71.7285">Colors legend</text><text fill="#000000" font-family="sans-serif" font-size="14" lengthAdjust="spacing" textLength="3.8896" x="518.1621" y="71.7285">:</text><ellipse cx="433.3867" cy="86.3633" fill="#000000" rx="2.5" ry="2.5"/><text fill="#000000" font-family="sans-serif" font-size="14" lengthAdjust="spacing" text-decoration="underline" textLength="147.8477" x="439.8867" y="90.3496">External API references</text><text fill="#000000" font-family="sans-serif" font-size="14" lengthAdjust="spacing" textLength="3.8896" x="591.624" y="90.3496">:</text><rect fill="#000000" height="3.5" width="3.5" x="436.8867" y="102.4844"/><text fill="#000000" filter="url(#b19fkrt6xp0dib0)" font-family="sans-serif" font-size="14" font-weight="bold" lengthAdjust="spacing" textLength="153.2822" x="443.8867" y="108.9707">keypop-reader-java-api</text><rect fill="#000000" height="3.5" width="3.5" x="436.8867" y="121.1055"/><text fill="#000000" filter="url(#b19fkrt6xp0dib1)" font-family="sans-serif" font-size="14" font-weight="bold" lengthAdjust="spacing" textLength="163.3857" x="443.8867" y="127.5918">keyple-common-java-api</text><rect fill="#000000" height="3.5" width="3.5" x="436.8867" y="139.7266"/><text fill="#000000" filter="url(#b19fkrt6xp0dib2)" font-family="sans-serif" font-size="14" font-weight="bold" lengthAdjust="spacing" textLength="213.2266" x="443.8867" y="146.2129">keyple-service-resource-java-lib</text><rect fill="#000000" height="3.5" width="3.5" x="436.8867" y="158.3477"/><text fill="#000000" filter="url(#b19fkrt6xp0dib3)" font-family="sans-serif" font-size="14" font-weight="bold" lengthAdjust="spacing" textLength="186.7236" x="443.8867" y="164.834">keypop-genericcard-jvm-api</text></g><!--cluster generic--><g class="cluster" data-entity="generic" data-source-line="63" data-uid="ent0002" id="cluster_generic"><path d="M8.5,192.3613 L218.0439,192.3613 A3.75,3.75 0 0 1 220.5439,194.8613 L227.5439,216.9824 L1089.5,216.9824 A2.5,2.5 0 0 1 1092,219.4824 L1092,477.8613 A2.5,2.5 0 0 1 1089.5,480.3613 L8.5,480.3613 A2.5,2.5 0 0 1 6,477.8613 L6,194.8613 A2.5,2.5 0 0 1 8.5,192.3613" fill="#F8F9F9" style="stroke:#000000;stroke-width:1.5;"/><line style="stroke:#000000;stroke-width:1.5;" x1="6" x2="227.5439" y1="216.9824" y2="216.9824"/><text fill="#000000" font-family="sans-serif" font-size="14" font-weight="bold" lengthAdjust="spacing" textLength="208.5439" x="10" y="209.4688">org.eclipse.keyple.card.generic</text></g><!--class GenericExtensionService--><g class="entity" data-entity="GenericExtensionService" data-source-line="64" data-uid="ent0003" id="entity_GenericExtensionService"><rect fill="#E9F7EF" height="234.832" rx="2.5" ry="2.5" style="stroke:#27AE60;stroke-width:2;" width="1053.1748" x="22.5" y="229.3613"/><ellipse cx="444.4102" cy="252.9824" fill="#ADD1B2" rx="11" ry="11" style="stroke:#ADD1B2;stroke-width:1;"/><path d="M447.1758,248.8574 Q447.332,248.6387 447.5195,248.5293 Q447.707,248.4199 447.9258,248.4199 Q448.3008,248.4199 448.5352,248.6855 Q448.7695,248.9355 448.7695,249.5449 L448.7695,250.998 Q448.7695,251.6074 448.5352,251.873 Q448.3008,252.1387 447.9258,252.1387 Q447.582,252.1387 447.3789,251.9355 Q447.1758,251.748 447.0664,251.2324 Q447.0195,250.873 446.832,250.6855 Q446.5039,250.3105 445.8945,250.0918 Q445.2852,249.873 444.6602,249.873 Q443.8945,249.873 443.2539,250.2012 Q442.6289,250.5293 442.1289,251.2793 Q441.6445,252.0293 441.6445,253.0605 L441.6445,254.1543 Q441.6445,255.3887 442.5352,256.2168 Q443.4258,257.0293 445.0195,257.0293 Q445.957,257.0293 446.6133,256.7793 Q447.0039,256.623 447.4258,256.1855 Q447.6914,255.9199 447.832,255.8418 Q447.9883,255.7637 448.1914,255.7637 Q448.5195,255.7637 448.7695,256.0293 Q449.0352,256.2793 449.0352,256.623 Q449.0352,256.9668 448.6914,257.373 Q448.1914,257.9512 447.3945,258.2793 Q446.3164,258.7324 445.0195,258.7324 Q443.5039,258.7324 442.3008,258.1074 Q441.3164,257.6074 440.6289,256.5449 Q439.9414,255.4668 439.9414,254.1855 L439.9414,253.0293 Q439.9414,251.7012 440.5508,250.5605 Q441.1758,249.4043 442.2695,248.7949 Q443.3633,248.1699 444.5977,248.1699 Q445.332,248.1699 445.9727,248.3418 Q446.6289,248.498 447.1758,248.8574 Z " fill="#000000"/><ellipse cx="469.9102" cy="252.4824" fill="#84BE84" rx="3" ry="3" style="stroke:#038048;stroke-width:1;"/><text fill="#000000" font-family="sans-serif" font-size="14" lengthAdjust="spacing" textLength="16.3516" x="487.1689" y="249.4688">&lt;&lt;</text><text fill="#000000" filter="url(#b19fkrt6xp0dib1)" font-family="sans-serif" font-size="14" lengthAdjust="spacing" textLength="134.6338" x="503.5205" y="249.4688">KeypleCardExtension</text><text fill="#000000" font-family="sans-serif" font-size="14" lengthAdjust="spacing" textLength="16.3516" x="638.1543" y="249.4688">&gt;&gt;</text><text fill="#000000" font-family="sans-serif" font-size="14" font-weight="bold" lengthAdjust="spacing" textLength="28.7793" x="475.9102" y="268.0898">final</text><text fill="#000000" font-family="sans-serif" font-size="14" lengthAdjust="spacing" textLength="157.1855" x="508.5791" y="268.0898">GenericExtensionService</text><line style="stroke:#27AE60;stroke-width:2;" x1="23.5" x2="1074.6748" y1="276.6035" y2="276.6035"/><line style="stroke:#27AE60;stroke-width:1;" x1="23.5" x2="1074.6748" y1="284.6035" y2="284.6035"/><ellipse cx="33.5" cy="299.4141" fill="#84BE84" rx="3" ry="3" style="stroke:#038048;stroke-width:1;"/><text fill="#000000" font-family="sans-serif" font-size="14" lengthAdjust="spacing" text-decoration="underline" textLength="246.6748" x="42.5" y="303.7109">GenericExtensionService getInstance ()</text><text fill="#000000" font-family="sans-serif" font-size="14" lengthAdjust="spacing" textLength="3.8896" x="42.5" y="322.332">&#160;</text><ellipse cx="33.5" cy="336.6563" fill="#84BE84" rx="3" ry="3" style="stroke:#038048;stroke-width:1;"/><text fill="#000000" filter="url(#b19fkrt6xp0dib3)" font-family="sans-serif" font-size="14" lengthAdjust="spacing" textLength="146.2754" x="42.5" y="340.9531">GenericCardFactoryApi</text><text fill="#000000" font-family="sans-serif" font-size="14" lengthAdjust="spacing" textLength="194.5098" x="192.665" y="340.9531">createGenericCardApiFactory()</text><ellipse cx="33.5" cy="355.2773" fill="#84BE84" rx="3" ry="3" style="stroke:#038048;stroke-width:1;"/><text fill="#000000" filter="url(#b19fkrt6xp0dib2)" font-family="sans-serif" font-size="14" lengthAdjust="spacing" textLength="191.4268" x="42.5" y="359.5742">CardResourceProfileExtension</text><text fill="#000000" font-family="sans-serif" font-size="14" lengthAdjust="spacing" textLength="238.8887" x="237.8164" y="359.5742">createCardResourceProfileExtension (</text><text fill="#000000" filter="url(#b19fkrt6xp0dib0)" font-family="sans-serif" font-size="14" lengthAdjust="spacing" textLength="100.3789" x="476.7051" y="359.5742">IsoCardSelector</text><text fill="#000000" font-family="sans-serif" font-size="14" lengthAdjust="spacing" textLength="82.4824" x="580.9736" y="359.5742">cardSelector,</text><text fill="#000000" filter="url(#b19fkrt6xp0dib0)" font-family="sans-serif" font-size="14" lengthAdjust="spacing" textLength="198.4404" x="667.3457" y="359.5742">GenericCardSelectionExtension</text><text fill="#000000" font-family="sans-serif" font-size="14" lengthAdjust="spacing" textLength="199.999" x="869.6758" y="359.5742">genericCardSelectionExtension)</text><text fill="#000000" font-family="sans-serif" font-size="14" lengthAdjust="spacing" textLength="3.8896" x="42.5" y="378.1953">&#160;</text><ellipse cx="33.5" cy="415.1406" fill="#84BE84" rx="3" ry="3" style="stroke:#038048;stroke-width:1;"/><text fill="#000000" font-family="sans-serif" font-size="14" lengthAdjust="spacing" textLength="197.6338" x="42.5" y="419.4375">String getCommonApiVersion ()</text><ellipse cx="33.5" cy="433.7617" fill="#84BE84" rx="3" ry="3" style="stroke:#038048;stroke-width:1;"/><text fill="#000000" font-family="sans-serif" font-size="14" lengthAdjust="spacing" textLength="186.7578" x="42.5" y="438.0586">String getReaderApiVersion ()</text><ellipse cx="33.5" cy="452.3828" fill="#84BE84" rx="3" ry="3" style="stroke:#038048;stroke-width:1;"/><text fill="#000000" font-family="sans-serif" font-size="14" lengthAdjust="spacing" textLength="171.1855" x="42.5" y="456.6797">String getCardApiVersion ()</text><line style="stroke:#27AE60;stroke-width:1;" x1="23.5" x2="476.7324" y1="395.0195" y2="395.0195"/><text fill="#000000" font-family="sans-serif" font-size="14" font-weight="bold" lengthAdjust="spacing" textLength="144.71" x="476.7324" y="400.3164">KeypleCardExtension</text><line style="stroke:#27AE60;stroke-width:1;" x1="621.4424" x2="1074.6748" y1="395.0195" y2="395.0195"/></g><!--SRC=[ZLPjR-8u4FxEhvZhVjWklG3bfPIAHGg9qqNRQojWxrJf9EGcRiWIxCWsPL7L_twsOo2m58vFPlpCyundnkF8HAQa1EhtdQoob803CxDmGimZ9oQKy2HqVk9NxAJ9izfkLceNS5wlrQ-SMiEvlFnI8ZG2QNXAd-7hLnX_GtyXjL1_FRP8oO8BI8HO404HWHkOIfc9csfrAkTfo5B6GnOHKGdPlFh2gn8_fmGld4Y5a7iVCAcbI6BgP2cMrT8V4Nb9A05lSZj4JvSGN0UTeBDdhaDG3nf1Sy_S0DH2RRIFReBVzlk-lsTkWUTwWL_VCrz1t_SQNhjWlXlSVuT6itFjzmlM7oC4zRQBhce5u_ZRyE4Vg7iDrAhf53eEZEGgLUcIKomXOlIpX2NZCrWcSWgKBE6LS94m2km5L0geNCnJvLOIiuHccECv24auONAL4RVFU4IufnCDdzoEx_d1GU1W1zXlkctKEWZqTXbz_x9VFmX4Eq3KxpIKj3aVklTrl0KlByL2vFZnD0bdb0W1HLgNSxOiRYcc9vAcRFaR2mvdCMSB6bdb00N8GuV5BCHlkbxDLvH34ftWwtOvYNezHUiZ7tb7Q3T8r6wgzYXD4zN_Q-CsJKhrSS7LdJifd1cOqMuYBsWVrTw2hr6pwVfh-Orz9uBdT75QNuFCUVf1A-WVLLz3xHMmsjQwetpB2Q4dfMEDCjgTe8s2ezeRhBrgLdnjtbTV_H_nbT5sLH-XKze6Qg_pLdgrgvoFIk_XVepknsPOfYGsavHbPXvF9ePHG6wVJE36sCjg1_rIH1Idu3uEW9CNnKf38hQOCdIVrI5kLkQ2zCfbFTHPvd22LQZvECTPKYvtgnhNs_KALvXQ7_qGiFcSqLC-Z6CQawsN8Fmr2ObI56p1rMBzX7pWdoLqjetJlZlc3VhvEj_LrLdAar8gPSg2Om9dZCSL4gP99aWb3w6YlIkMwGom0Bk6DoDz4UhYmLctMpXr_WfwobFdcEeXQsLxlNzfkQn6DavLqBSvrGOqoezhP3xOAtHW7e3-gI6uNbwy2Obb4hv_I10JEQ0Af6eDvrzAMyz22gslFa60GyduoiqIUmG8LVqbAK3KdaKflZqwMr4D6zeYFdBsagHaFpMMznWIpdSQSY2OHez8IhJwXgTW-tEtXGj1vmX5-biSyJ5G8M7g1IgN3vHQ5RPOa97a2OrrsZrp1rIs_hOFRp5TMzZGNA-JC9lvFT1xwLrF1LS85YPOXoxibBXpdnv-v4F2_1-Dd-xo3wnr-wyx-zFw4-XDSVq7]--></g></svg>