<?xml version="1.0" encoding="us-ascii" standalone="no"?><svg xmlns="http://www.w3.org/2000/svg" xmlns:xlink="http://www.w3.org/1999/xlink" contentStyleType="text/css" height="997px" preserveAspectRatio="none" style="width:1376px;height:997px;background:#FFFFFF;" version="1.1" viewBox="0 0 1376 997" width="1376px" zoomAndPan="magnify"><defs><filter height="1" id="bl6w2jjchsj6q0" width="1" x="0" y="0"><feFlood flood-color="#FFFF00" result="flood"/><feComposite in="SourceGraphic" in2="flood" operator="over"/></filter><filter height="1" id="bl6w2jjchsj6q1" width="1" x="0" y="0"><feFlood flood-color="#00FFFF" result="flood"/><feComposite in="SourceGraphic" in2="flood" operator="over"/></filter><filter height="1" id="bl6w2jjchsj6q2" width="1" x="0" y="0"><feFlood flood-color="#FFA500" result="flood"/><feComposite in="SourceGraphic" in2="flood" operator="over"/></filter></defs><g><text fill="#000000" font-family="sans-serif" font-size="14" font-weight="bold" lengthAdjust="spacing" textLength="391" x="485.5" y="25.1074">Keyple - keyple-card-generic-java-lib - 3.0.+ (2023-06-30)</text><rect fill="#DDDDDD" height="103.1055" id="_legend" rx="7.5" ry="7.5" style="stroke:#000000;stroke-width:1.0;" width="276" x="543" y="51.6211"/><text fill="#000000" font-family="sans-serif" font-size="14" lengthAdjust="spacing" text-decoration="underline" textLength="88" x="548" y="71.7285">Colors legend</text><text fill="#000000" font-family="sans-serif" font-size="14" lengthAdjust="spacing" textLength="4" x="640" y="71.7285">:</text><ellipse cx="553.5" cy="86.3633" fill="#000000" rx="2.5" ry="2.5" style="stroke:#000000;stroke-width:0.0;"/><text fill="#000000" font-family="sans-serif" font-size="14" lengthAdjust="spacing" text-decoration="underline" textLength="148" x="560" y="90.3496">External API references</text><text fill="#000000" font-family="sans-serif" font-size="14" lengthAdjust="spacing" textLength="4" x="712" y="90.3496">:</text><rect fill="#000000" height="3.5" style="stroke:#000000;stroke-width:0.0;" width="3.5" x="557" y="102.4844"/><text fill="#000000" filter="url(#bl6w2jjchsj6q0)" font-family="sans-serif" font-size="14" font-weight="bold" lengthAdjust="spacing" textLength="250" x="564" y="108.9707">calypsonet-terminal-reader-java-api</text><rect fill="#000000" height="3.5" style="stroke:#000000;stroke-width:0.0;" width="3.5" x="557" y="121.1055"/><text fill="#000000" filter="url(#bl6w2jjchsj6q1)" font-family="sans-serif" font-size="14" font-weight="bold" lengthAdjust="spacing" textLength="170" x="564" y="127.5918">keyple-common-java-api</text><rect fill="#000000" height="3.5" style="stroke:#000000;stroke-width:0.0;" width="3.5" x="557" y="139.7266"/><text fill="#000000" filter="url(#bl6w2jjchsj6q2)" font-family="sans-serif" font-size="14" font-weight="bold" lengthAdjust="spacing" textLength="229" x="564" y="146.2129">keyple-service-resource-java-lib</text><!--cluster generic--><g id="cluster_generic"><path d="M8.5,173.7402 L231.5,173.7402 A3.75,3.75 0 0 1 234,176.2402 L241,198.3613 L1366.5,198.3613 A2.5,2.5 0 0 1 1369,200.8613 L1369,988.2402 A2.5,2.5 0 0 1 1366.5,990.7402 L8.5,990.7402 A2.5,2.5 0 0 1 6,988.2402 L6,176.2402 A2.5,2.5 0 0 1 8.5,173.7402 " fill="#F8F9F9" style="stroke:#000000;stroke-width:1.5;"/><line style="stroke:#000000;stroke-width:1.5;" x1="6" x2="241" y1="198.3613" y2="198.3613"/><text fill="#000000" font-family="sans-serif" font-size="14" font-weight="bold" lengthAdjust="spacing" textLength="222" x="10" y="190.8477">org.eclipse.keyple.card.generic</text></g><!--class GenericExtensionService--><g id="elem_GenericExtensionService"><rect codeLine="63" fill="#E9F7EF" height="253.4531" id="GenericExtensionService" rx="2.5" ry="2.5" style="stroke:#27AE60;stroke-width:2.0;" width="749" x="331.5" y="210.7402"/><ellipse cx="600.25" cy="234.3613" fill="#ADD1B2" rx="11" ry="11" style="stroke:#181818;stroke-width:1.0;"/><path d="M603.0156,230.2363 Q603.1719,230.0176 603.3594,229.9082 Q603.5469,229.7988 603.7656,229.7988 Q604.1406,229.7988 604.375,230.0645 Q604.6094,230.3145 604.6094,230.9238 L604.6094,232.377 Q604.6094,232.9863 604.375,233.252 Q604.1406,233.5176 603.7656,233.5176 Q603.4219,233.5176 603.2188,233.3145 Q603.0156,233.127 602.9063,232.6113 Q602.8594,232.252 602.6719,232.0645 Q602.3438,231.6895 601.7344,231.4707 Q601.125,231.252 600.5,231.252 Q599.7344,231.252 599.0938,231.5801 Q598.4688,231.9082 597.9688,232.6582 Q597.4844,233.4082 597.4844,234.4395 L597.4844,235.5332 Q597.4844,236.7676 598.375,237.5957 Q599.2656,238.4082 600.8594,238.4082 Q601.7969,238.4082 602.4531,238.1582 Q602.8438,238.002 603.2656,237.5645 Q603.5313,237.2988 603.6719,237.2207 Q603.8281,237.1426 604.0313,237.1426 Q604.3594,237.1426 604.6094,237.4082 Q604.875,237.6582 604.875,238.002 Q604.875,238.3457 604.5313,238.752 Q604.0313,239.3301 603.2344,239.6582 Q602.1563,240.1113 600.8594,240.1113 Q599.3438,240.1113 598.1406,239.4863 Q597.1563,238.9863 596.4688,237.9238 Q595.7813,236.8457 595.7813,235.5645 L595.7813,234.4082 Q595.7813,233.0801 596.3906,231.9395 Q597.0156,230.7832 598.1094,230.1738 Q599.2031,229.5488 600.4375,229.5488 Q601.1719,229.5488 601.8125,229.7207 Q602.4688,229.877 603.0156,230.2363 Z " fill="#000000"/><ellipse cx="625.75" cy="233.8613" fill="#84BE84" rx="3" ry="3" style="stroke:#038048;stroke-width:1.0;"/><text fill="#000000" font-family="sans-serif" font-size="14" lengthAdjust="spacing" textLength="16" x="644.25" y="230.8477">&lt;&lt;</text><text fill="#000000" filter="url(#bl6w2jjchsj6q1)" font-family="sans-serif" font-size="14" lengthAdjust="spacing" textLength="135" x="660.25" y="230.8477">KeypleCardExtension</text><text fill="#000000" font-family="sans-serif" font-size="14" lengthAdjust="spacing" textLength="16" x="795.25" y="230.8477">&gt;&gt;</text><text fill="#000000" font-family="sans-serif" font-size="14" font-weight="bold" lengthAdjust="spacing" textLength="30" x="631.75" y="249.4688">final</text><text fill="#000000" font-family="sans-serif" font-size="14" lengthAdjust="spacing" textLength="158" x="665.75" y="249.4688">GenericExtensionService</text><line style="stroke:#27AE60;stroke-width:2.0;" x1="332.5" x2="1079.5" y1="257.9824" y2="257.9824"/><line style="stroke:#27AE60;stroke-width:1.0;" x1="332.5" x2="1079.5" y1="265.9824" y2="265.9824"/><ellipse cx="342.5" cy="280.793" fill="#84BE84" rx="3" ry="3" style="stroke:#038048;stroke-width:1.0;"/><text fill="#000000" font-family="sans-serif" font-size="14" lengthAdjust="spacing" text-decoration="underline" textLength="249" x="351.5" y="285.0898">GenericExtensionService getInstance ()</text><text fill="#000000" font-family="sans-serif" font-size="14" lengthAdjust="spacing" textLength="4" x="351.5" y="303.7109">&#160;</text><ellipse cx="342.5" cy="318.0352" fill="#84BE84" rx="3" ry="3" style="stroke:#038048;stroke-width:1.0;"/><text fill="#0000FF" filter="url(#bl6w2jjchsj6q0)" font-family="sans-serif" font-size="14" lengthAdjust="spacing" textLength="150" x="351.5" y="322.332">CardSelectionExtension</text><text fill="#0000FF" font-family="sans-serif" font-size="14" lengthAdjust="spacing" textLength="204" x="505.5" y="322.332">createCardSelectionExtension ()</text><ellipse cx="342.5" cy="336.6563" fill="#84BE84" rx="3" ry="3" style="stroke:#038048;stroke-width:1.0;"/><text fill="#000000" filter="url(#bl6w2jjchsj6q2)" font-family="sans-serif" font-size="14" lengthAdjust="spacing" textLength="193" x="351.5" y="340.9531">CardResourceProfileExtension</text><text fill="#000000" font-family="sans-serif" font-size="14" lengthAdjust="spacing" textLength="526" x="548.5" y="340.9531">createCardResourceProfileExtension (GenericCardSelection genericCardSelection)</text><ellipse cx="342.5" cy="355.2773" fill="#84BE84" rx="3" ry="3" style="stroke:#038048;stroke-width:1.0;"/><text fill="#000000" font-family="sans-serif" font-size="14" lengthAdjust="spacing" textLength="321" x="351.5" y="359.5742">CardTransactionManager createCardTransaction (</text><text fill="#000000" filter="url(#bl6w2jjchsj6q0)" font-family="sans-serif" font-size="14" lengthAdjust="spacing" textLength="78" x="672.5" y="359.5742">CardReader</text><text fill="#000000" font-family="sans-serif" font-size="14" lengthAdjust="spacing" textLength="79" x="754.5" y="359.5742">cardReader,</text><text fill="#000000" filter="url(#bl6w2jjchsj6q0)" font-family="sans-serif" font-size="14" lengthAdjust="spacing" textLength="68" x="837.5" y="359.5742">SmartCard</text><text fill="#000000" font-family="sans-serif" font-size="14" lengthAdjust="spacing" textLength="33" x="909.5" y="359.5742">card)</text><text fill="#000000" font-family="sans-serif" font-size="14" lengthAdjust="spacing" textLength="4" x="351.5" y="378.1953">&#160;</text><ellipse cx="342.5" cy="415.1406" fill="#84BE84" rx="3" ry="3" style="stroke:#038048;stroke-width:1.0;"/><text fill="#000000" font-family="sans-serif" font-size="14" lengthAdjust="spacing" textLength="199" x="351.5" y="419.4375">String getCommonApiVersion ()</text><ellipse cx="342.5" cy="433.7617" fill="#84BE84" rx="3" ry="3" style="stroke:#038048;stroke-width:1.0;"/><text fill="#000000" font-family="sans-serif" font-size="14" lengthAdjust="spacing" textLength="190" x="351.5" y="438.0586">String getReaderApiVersion ()</text><ellipse cx="342.5" cy="452.3828" fill="#84BE84" rx="3" ry="3" style="stroke:#038048;stroke-width:1.0;"/><text fill="#000000" font-family="sans-serif" font-size="14" lengthAdjust="spacing" textLength="174" x="351.5" y="456.6797">String getCardApiVersion ()</text><line style="stroke:#27AE60;stroke-width:1.0;" x1="332.5" x2="630.5" y1="395.0195" y2="395.0195"/><text fill="#000000" font-family="sans-serif" font-size="14" font-weight="bold" lengthAdjust="spacing" textLength="151" x="630.5" y="400.3164">KeypleCardExtension</text><line style="stroke:#27AE60;stroke-width:1.0;" x1="781.5" x2="1079.5" y1="395.0195" y2="395.0195"/></g><!--class GenericCardSelection--><g id="elem_GenericCardSelection"><rect codeLine="76" fill="#FEFECE" height="230.832" id="GenericCardSelection" rx="2.5" ry="2.5" style="stroke:#D4AC0D;stroke-width:2.0;" width="618" x="22" y="542.7402"/><ellipse cx="230.25" cy="566.3613" fill="#B4A7E5" rx="11" ry="11" style="stroke:#181818;stroke-width:1.0;"/><path d="M231.2031,563.002 L231.2031,569.6582 L232.9219,569.6582 Q233.5313,569.6582 233.7969,569.8926 Q234.0625,570.127 234.0625,570.5176 Q234.0625,570.8926 233.7969,571.127 Q233.5313,571.3613 232.9219,571.3613 L227.7813,571.3613 Q227.1719,571.3613 226.9063,571.127 Q226.6406,570.8926 226.6406,570.502 Q226.6406,570.127 226.9063,569.8926 Q227.1719,569.6582 227.7813,569.6582 L229.5,569.6582 L229.5,563.002 L227.7813,563.002 Q227.1719,563.002 226.9063,562.7676 Q226.6406,562.5332 226.6406,562.1426 Q226.6406,561.7676 226.9063,561.5332 Q227.1719,561.2988 227.7813,561.2988 L232.9219,561.2988 Q233.5313,561.2988 233.7969,561.5332 Q234.0625,561.7676 234.0625,562.1426 Q234.0625,562.5332 233.7969,562.7676 Q233.5313,563.002 232.9219,563.002 L231.2031,563.002 Z " fill="#000000"/><ellipse cx="255.75" cy="565.8613" fill="#84BE84" rx="3" ry="3" style="stroke:#038048;stroke-width:1.0;"/><text fill="#FF0000" font-family="sans-serif" font-size="14" font-style="italic" lengthAdjust="spacing" textLength="16" x="261.75" y="562.8477">&lt;&lt;</text><text fill="#FF0000" filter="url(#bl6w2jjchsj6q0)" font-family="sans-serif" font-size="14" font-style="italic" lengthAdjust="spacing" textLength="150" x="277.75" y="562.8477">CardSelectionExtension</text><text fill="#FF0000" font-family="sans-serif" font-size="14" font-style="italic" lengthAdjust="spacing" textLength="16" x="427.75" y="562.8477">&gt;&gt;</text><text fill="#FF0000" font-family="sans-serif" font-size="14" font-style="italic" lengthAdjust="spacing" textLength="139" x="283.25" y="581.4688">GenericCardSelection</text><line style="stroke:#D4AC0D;stroke-width:2.0;" x1="23" x2="639" y1="589.9824" y2="589.9824"/><line style="stroke:#D4AC0D;stroke-width:2.0;" x1="23" x2="639" y1="597.9824" y2="597.9824"/><ellipse cx="33" cy="612.793" fill="#84BE84" rx="3" ry="3" style="stroke:#038048;stroke-width:1.0;"/><text fill="#FF0000" font-family="sans-serif" font-size="14" lengthAdjust="spacing" textLength="404" x="42" y="617.0898">GenericCardSelection filterByCardProtocol (String cardProtocol)</text><text fill="#000000" font-family="sans-serif" font-size="14" lengthAdjust="spacing" textLength="4" x="42" y="635.7109">&#160;</text><ellipse cx="33" cy="650.0352" fill="#84BE84" rx="3" ry="3" style="stroke:#038048;stroke-width:1.0;"/><text fill="#FF0000" font-family="sans-serif" font-size="14" lengthAdjust="spacing" textLength="456" x="42" y="654.332">GenericCardSelection filterByPowerOnData (String powerOnDataRegex)</text><text fill="#000000" font-family="sans-serif" font-size="14" lengthAdjust="spacing" textLength="4" x="42" y="672.9531">&#160;</text><ellipse cx="33" cy="687.2773" fill="#84BE84" rx="3" ry="3" style="stroke:#038048;stroke-width:1.0;"/><text fill="#FF0000" font-family="sans-serif" font-size="14" lengthAdjust="spacing" textLength="308" x="42" y="691.5742">GenericCardSelection filterByDfName (byte[] aid)</text><ellipse cx="33" cy="705.8984" fill="#84BE84" rx="3" ry="3" style="stroke:#038048;stroke-width:1.0;"/><text fill="#FF0000" font-family="sans-serif" font-size="14" lengthAdjust="spacing" textLength="310" x="42" y="710.1953">GenericCardSelection filterByDfName (String aid)</text><ellipse cx="33" cy="724.5195" fill="#84BE84" rx="3" ry="3" style="stroke:#038048;stroke-width:1.0;"/><text fill="#FF0000" font-family="sans-serif" font-size="14" lengthAdjust="spacing" textLength="466" x="42" y="728.8164">GenericCardSelection setFileOccurrence (FileOccurrence fileOccurrence)</text><ellipse cx="33" cy="743.1406" fill="#84BE84" rx="3" ry="3" style="stroke:#038048;stroke-width:1.0;"/><text fill="#FF0000" font-family="sans-serif" font-size="14" lengthAdjust="spacing" textLength="592" x="42" y="747.4375">GenericCardSelection setFileControlInformation (FileControlInformation fileControlInformation)</text><ellipse cx="33" cy="761.7617" fill="#84BE84" rx="3" ry="3" style="stroke:#038048;stroke-width:1.0;"/><text fill="#FF0000" font-family="sans-serif" font-size="14" lengthAdjust="spacing" textLength="414" x="42" y="766.0586">GenericCardSelection addSuccessfulStatusWord (int statusWord)</text></g><!--class FileOccurrence--><g id="elem_FileOccurrence"><rect codeLine="87" fill="#E9F7EF" height="122.4844" id="FileOccurrence" rx="2.5" ry="2.5" style="stroke:#27AE60;stroke-width:2.0;" width="140" x="150" y="852.7402"/><ellipse cx="165" cy="868.7402" fill="#EB937F" rx="11" ry="11" style="stroke:#181818;stroke-width:1.0;"/><path d="M163.8594,869.5371 L163.8594,872.0371 L168.1875,872.0371 L168.1875,871.1152 Q168.1875,870.5059 168.4219,870.2402 Q168.6719,869.9746 169.0469,869.9746 Q169.4219,869.9746 169.6563,870.2402 Q169.8906,870.5059 169.8906,871.1152 L169.8906,873.7402 L161.8906,873.7402 Q161.2656,873.7402 161,873.5059 Q160.75,873.2715 160.75,872.8809 Q160.75,872.5059 161.0156,872.2715 Q161.2813,872.0371 161.8906,872.0371 L162.1563,872.0371 L162.1563,865.3809 L161.8906,865.3809 Q161.2656,865.3809 161,865.1465 Q160.75,864.9121 160.75,864.5215 Q160.75,864.1465 161,863.9121 Q161.2656,863.6777 161.8906,863.6777 L169.5156,863.6777 L169.5156,866.2715 Q169.5156,866.8809 169.2813,867.1465 Q169.0625,867.3965 168.6719,867.3965 Q168.2969,867.3965 168.0625,867.1465 Q167.8281,866.8809 167.8281,866.2715 L167.8281,865.3809 L163.8594,865.3809 L163.8594,867.834 L165.3438,867.834 Q165.3438,867.1777 165.4688,866.9902 Q165.7344,866.584 166.2031,866.584 Q166.5781,866.584 166.8125,866.8496 Q167.0469,867.0996 167.0469,867.709 L167.0469,869.6777 Q167.0469,870.2246 166.9219,870.4121 Q166.6563,870.8027 166.2031,870.8027 Q165.7344,870.8027 165.4688,870.3965 Q165.3438,870.209 165.3438,869.5371 L163.8594,869.5371 Z " fill="#000000"/><ellipse cx="184" cy="868.2402" fill="#84BE84" rx="3" ry="3" style="stroke:#038048;stroke-width:1.0;"/><text fill="#FF0000" font-family="sans-serif" font-size="14" lengthAdjust="spacing" textLength="97" x="190" y="874.5371">FileOccurrence</text><line style="stroke:#27AE60;stroke-width:2.0;" x1="151" x2="289" y1="884.7402" y2="884.7402"/><text fill="#FF0000" font-family="sans-serif" font-size="14" lengthAdjust="spacing" textLength="40" x="156" y="903.8477">FIRST</text><text fill="#FF0000" font-family="sans-serif" font-size="14" lengthAdjust="spacing" textLength="35" x="156" y="922.4688">LAST</text><text fill="#FF0000" font-family="sans-serif" font-size="14" lengthAdjust="spacing" textLength="35" x="156" y="941.0898">NEXT</text><text fill="#FF0000" font-family="sans-serif" font-size="14" lengthAdjust="spacing" textLength="69" x="156" y="959.7109">PREVIOUS</text><line style="stroke:#27AE60;stroke-width:2.0;" x1="151" x2="289" y1="967.2246" y2="967.2246"/></g><!--class FileControlInformation--><g id="elem_FileControlInformation"><rect codeLine="93" fill="#E9F7EF" height="122.4844" id="FileControlInformation" rx="2.5" ry="2.5" style="stroke:#27AE60;stroke-width:2.0;" width="182" x="325" y="852.7402"/><ellipse cx="340" cy="868.7402" fill="#EB937F" rx="11" ry="11" style="stroke:#181818;stroke-width:1.0;"/><path d="M338.8594,869.5371 L338.8594,872.0371 L343.1875,872.0371 L343.1875,871.1152 Q343.1875,870.5059 343.4219,870.2402 Q343.6719,869.9746 344.0469,869.9746 Q344.4219,869.9746 344.6563,870.2402 Q344.8906,870.5059 344.8906,871.1152 L344.8906,873.7402 L336.8906,873.7402 Q336.2656,873.7402 336,873.5059 Q335.75,873.2715 335.75,872.8809 Q335.75,872.5059 336.0156,872.2715 Q336.2813,872.0371 336.8906,872.0371 L337.1563,872.0371 L337.1563,865.3809 L336.8906,865.3809 Q336.2656,865.3809 336,865.1465 Q335.75,864.9121 335.75,864.5215 Q335.75,864.1465 336,863.9121 Q336.2656,863.6777 336.8906,863.6777 L344.5156,863.6777 L344.5156,866.2715 Q344.5156,866.8809 344.2813,867.1465 Q344.0625,867.3965 343.6719,867.3965 Q343.2969,867.3965 343.0625,867.1465 Q342.8281,866.8809 342.8281,866.2715 L342.8281,865.3809 L338.8594,865.3809 L338.8594,867.834 L340.3438,867.834 Q340.3438,867.1777 340.4688,866.9902 Q340.7344,866.584 341.2031,866.584 Q341.5781,866.584 341.8125,866.8496 Q342.0469,867.0996 342.0469,867.709 L342.0469,869.6777 Q342.0469,870.2246 341.9219,870.4121 Q341.6563,870.8027 341.2031,870.8027 Q340.7344,870.8027 340.4688,870.3965 Q340.3438,870.209 340.3438,869.5371 L338.8594,869.5371 Z " fill="#000000"/><ellipse cx="359" cy="868.2402" fill="#84BE84" rx="3" ry="3" style="stroke:#038048;stroke-width:1.0;"/><text fill="#FF0000" font-family="sans-serif" font-size="14" lengthAdjust="spacing" textLength="139" x="365" y="874.5371">FileControlInformation</text><line style="stroke:#27AE60;stroke-width:2.0;" x1="326" x2="506" y1="884.7402" y2="884.7402"/><text fill="#FF0000" font-family="sans-serif" font-size="14" lengthAdjust="spacing" textLength="22" x="331" y="903.8477">FCI</text><text fill="#FF0000" font-family="sans-serif" font-size="14" lengthAdjust="spacing" textLength="28" x="331" y="922.4688">FCP</text><text fill="#FF0000" font-family="sans-serif" font-size="14" lengthAdjust="spacing" textLength="30" x="331" y="941.0898">FMD</text><text fill="#FF0000" font-family="sans-serif" font-size="14" lengthAdjust="spacing" textLength="103" x="331" y="959.7109">NO_RESPONSE</text><line style="stroke:#27AE60;stroke-width:2.0;" x1="326" x2="506" y1="967.2246" y2="967.2246"/></g><!--class CardTransactionManager--><g id="elem_CardTransactionManager"><rect codeLine="99" fill="#FEFECE" height="196.9688" id="CardTransactionManager" rx="2.5" ry="2.5" style="stroke:#D4AC0D;stroke-width:2.0;" width="677" x="675.5" y="559.7402"/><ellipse cx="922.75" cy="575.7402" fill="#B4A7E5" rx="11" ry="11" style="stroke:#181818;stroke-width:1.0;"/><path d="M923.7031,572.3809 L923.7031,579.0371 L925.4219,579.0371 Q926.0313,579.0371 926.2969,579.2715 Q926.5625,579.5059 926.5625,579.8965 Q926.5625,580.2715 926.2969,580.5059 Q926.0313,580.7402 925.4219,580.7402 L920.2813,580.7402 Q919.6719,580.7402 919.4063,580.5059 Q919.1406,580.2715 919.1406,579.8809 Q919.1406,579.5059 919.4063,579.2715 Q919.6719,579.0371 920.2813,579.0371 L922,579.0371 L922,572.3809 L920.2813,572.3809 Q919.6719,572.3809 919.4063,572.1465 Q919.1406,571.9121 919.1406,571.5215 Q919.1406,571.1465 919.4063,570.9121 Q919.6719,570.6777 920.2813,570.6777 L925.4219,570.6777 Q926.0313,570.6777 926.2969,570.9121 Q926.5625,571.1465 926.5625,571.5215 Q926.5625,571.9121 926.2969,572.1465 Q926.0313,572.3809 925.4219,572.3809 L923.7031,572.3809 Z " fill="#000000"/><ellipse cx="948.25" cy="575.2402" fill="#84BE84" rx="3" ry="3" style="stroke:#038048;stroke-width:1.0;"/><text fill="#000000" font-family="sans-serif" font-size="14" font-style="italic" lengthAdjust="spacing" textLength="163" x="954.25" y="581.5371">CardTransactionManager</text><line style="stroke:#D4AC0D;stroke-width:2.0;" x1="676.5" x2="1351.5" y1="591.7402" y2="591.7402"/><line style="stroke:#D4AC0D;stroke-width:2.0;" x1="676.5" x2="1351.5" y1="599.7402" y2="599.7402"/><ellipse cx="686.5" cy="614.5508" fill="#84BE84" rx="3" ry="3" style="stroke:#038048;stroke-width:1.0;"/><text fill="#000000" font-family="sans-serif" font-size="14" lengthAdjust="spacing" textLength="400" x="695.5" y="618.8477">CardTransactionManager prepareApdu (String apduCommand)</text><ellipse cx="686.5" cy="633.1719" fill="#84BE84" rx="3" ry="3" style="stroke:#038048;stroke-width:1.0;"/><text fill="#000000" font-family="sans-serif" font-size="14" lengthAdjust="spacing" textLength="398" x="695.5" y="637.4688">CardTransactionManager prepareApdu (byte[] apduCommand)</text><ellipse cx="686.5" cy="651.793" fill="#84BE84" rx="3" ry="3" style="stroke:#038048;stroke-width:1.0;"/><text fill="#000000" font-family="sans-serif" font-size="14" lengthAdjust="spacing" textLength="616" x="695.5" y="656.0898">CardTransactionManager prepareApdu (byte cla, byte ins, byte p1, byte p2, byte[] dataIn, Byte le)</text><text fill="#000000" font-family="sans-serif" font-size="14" lengthAdjust="spacing" textLength="4" x="695.5" y="674.7109">&#160;</text><ellipse cx="686.5" cy="689.0352" fill="#84BE84" rx="3" ry="3" style="stroke:#038048;stroke-width:1.0;"/><text fill="#FF0000" font-family="sans-serif" font-size="14" lengthAdjust="spacing" textLength="335" x="695.5" y="693.332">CardTransactionManager prepareReleaseChannel ()</text><text fill="#000000" font-family="sans-serif" font-size="14" lengthAdjust="spacing" textLength="4" x="695.5" y="711.9531">&#160;</text><ellipse cx="686.5" cy="726.2773" fill="#84BE84" rx="3" ry="3" style="stroke:#038048;stroke-width:1.0;"/><text fill="#000000" font-family="sans-serif" font-size="14" lengthAdjust="spacing" textLength="262" x="695.5" y="730.5742">List&lt;byte[]&gt; processApdusToByteArrays (</text><text fill="#0000FF" font-family="sans-serif" font-size="14" lengthAdjust="spacing" textLength="199" x="957.5" y="730.5742">ChannelControl channelControl</text><text fill="#000000" font-family="sans-serif" font-size="14" lengthAdjust="spacing" textLength="190" x="1156.5" y="730.5742">) throws TransactionException</text><ellipse cx="686.5" cy="744.8984" fill="#84BE84" rx="3" ry="3" style="stroke:#038048;stroke-width:1.0;"/><text fill="#000000" font-family="sans-serif" font-size="14" lengthAdjust="spacing" textLength="262" x="695.5" y="749.1953">List&lt;String&gt; processApdusToHexStrings (</text><text fill="#0000FF" font-family="sans-serif" font-size="14" lengthAdjust="spacing" textLength="199" x="957.5" y="749.1953">ChannelControl channelControl</text><text fill="#000000" font-family="sans-serif" font-size="14" lengthAdjust="spacing" textLength="190" x="1156.5" y="749.1953">) throws TransactionException</text></g><!--class ChannelControl--><g id="elem_ChannelControl"><rect codeLine="109" fill="#E9F7EF" height="85.2422" id="ChannelControl" rx="2.5" ry="2.5" style="stroke:#27AE60;stroke-width:2.0;" width="142" x="750" y="871.2402"/><ellipse cx="765" cy="887.2402" fill="#EB937F" rx="11" ry="11" style="stroke:#181818;stroke-width:1.0;"/><path d="M763.8594,888.0371 L763.8594,890.5371 L768.1875,890.5371 L768.1875,889.6152 Q768.1875,889.0059 768.4219,888.7402 Q768.6719,888.4746 769.0469,888.4746 Q769.4219,888.4746 769.6563,888.7402 Q769.8906,889.0059 769.8906,889.6152 L769.8906,892.2402 L761.8906,892.2402 Q761.2656,892.2402 761,892.0059 Q760.75,891.7715 760.75,891.3809 Q760.75,891.0059 761.0156,890.7715 Q761.2813,890.5371 761.8906,890.5371 L762.1563,890.5371 L762.1563,883.8809 L761.8906,883.8809 Q761.2656,883.8809 761,883.6465 Q760.75,883.4121 760.75,883.0215 Q760.75,882.6465 761,882.4121 Q761.2656,882.1777 761.8906,882.1777 L769.5156,882.1777 L769.5156,884.7715 Q769.5156,885.3809 769.2813,885.6465 Q769.0625,885.8965 768.6719,885.8965 Q768.2969,885.8965 768.0625,885.6465 Q767.8281,885.3809 767.8281,884.7715 L767.8281,883.8809 L763.8594,883.8809 L763.8594,886.334 L765.3438,886.334 Q765.3438,885.6777 765.4688,885.4902 Q765.7344,885.084 766.2031,885.084 Q766.5781,885.084 766.8125,885.3496 Q767.0469,885.5996 767.0469,886.209 L767.0469,888.1777 Q767.0469,888.7246 766.9219,888.9121 Q766.6563,889.3027 766.2031,889.3027 Q765.7344,889.3027 765.4688,888.8965 Q765.3438,888.709 765.3438,888.0371 L763.8594,888.0371 Z " fill="#000000"/><ellipse cx="784" cy="886.7402" fill="#84BE84" rx="3" ry="3" style="stroke:#038048;stroke-width:1.0;"/><text fill="#0000FF" font-family="sans-serif" font-size="14" lengthAdjust="spacing" textLength="99" x="790" y="893.0371">ChannelControl</text><line style="stroke:#27AE60;stroke-width:2.0;" x1="751" x2="891" y1="903.2402" y2="903.2402"/><text fill="#0000FF" font-family="sans-serif" font-size="14" lengthAdjust="spacing" textLength="82" x="756" y="922.3477">KEEP_OPEN</text><text fill="#0000FF" font-family="sans-serif" font-size="14" lengthAdjust="spacing" textLength="101" x="756" y="940.9688">CLOSE_AFTER</text><line style="stroke:#27AE60;stroke-width:2.0;" x1="751" x2="891" y1="948.4824" y2="948.4824"/></g><!--class TransactionException--><g id="elem_TransactionException"><rect codeLine="113" fill="#FEFECE" height="100.4844" id="TransactionException" rx="2.5" ry="2.5" style="stroke:#D4AC0D;stroke-width:2.0;" width="390" x="927" y="863.7402"/><ellipse cx="1027.25" cy="887.3613" fill="#ADD1B2" rx="11" ry="11" style="stroke:#181818;stroke-width:1.0;"/><path d="M1030.0156,883.2363 Q1030.1719,883.0176 1030.3594,882.9082 Q1030.5469,882.7988 1030.7656,882.7988 Q1031.1406,882.7988 1031.375,883.0645 Q1031.6094,883.3145 1031.6094,883.9238 L1031.6094,885.377 Q1031.6094,885.9863 1031.375,886.252 Q1031.1406,886.5176 1030.7656,886.5176 Q1030.4219,886.5176 1030.2188,886.3145 Q1030.0156,886.127 1029.9063,885.6113 Q1029.8594,885.252 1029.6719,885.0645 Q1029.3438,884.6895 1028.7344,884.4707 Q1028.125,884.252 1027.5,884.252 Q1026.7344,884.252 1026.0938,884.5801 Q1025.4688,884.9082 1024.9688,885.6582 Q1024.4844,886.4082 1024.4844,887.4395 L1024.4844,888.5332 Q1024.4844,889.7676 1025.375,890.5957 Q1026.2656,891.4082 1027.8594,891.4082 Q1028.7969,891.4082 1029.4531,891.1582 Q1029.8438,891.002 1030.2656,890.5645 Q1030.5313,890.2988 1030.6719,890.2207 Q1030.8281,890.1426 1031.0313,890.1426 Q1031.3594,890.1426 1031.6094,890.4082 Q1031.875,890.6582 1031.875,891.002 Q1031.875,891.3457 1031.5313,891.752 Q1031.0313,892.3301 1030.2344,892.6582 Q1029.1563,893.1113 1027.8594,893.1113 Q1026.3438,893.1113 1025.1406,892.4863 Q1024.1563,891.9863 1023.4688,890.9238 Q1022.7813,889.8457 1022.7813,888.5645 L1022.7813,887.4082 Q1022.7813,886.0801 1023.3906,884.9395 Q1024.0156,883.7832 1025.1094,883.1738 Q1026.2031,882.5488 1027.4375,882.5488 Q1028.1719,882.5488 1028.8125,882.7207 Q1029.4688,882.877 1030.0156,883.2363 Z " fill="#000000"/><ellipse cx="1052.75" cy="886.8613" fill="#84BE84" rx="3" ry="3" style="stroke:#038048;stroke-width:1.0;"/><text fill="#000000" font-family="sans-serif" font-size="14" lengthAdjust="spacing" textLength="129" x="1079.25" y="883.8477">&#171;RuntimeException&#187;</text><text fill="#000000" font-family="sans-serif" font-size="14" font-weight="bold" lengthAdjust="spacing" textLength="30" x="1058.75" y="902.4688">final</text><text fill="#000000" font-family="sans-serif" font-size="14" lengthAdjust="spacing" textLength="136" x="1092.75" y="902.4688">TransactionException</text><line style="stroke:#D4AC0D;stroke-width:2.0;" x1="928" x2="1316" y1="910.9824" y2="910.9824"/><line style="stroke:#D4AC0D;stroke-width:2.0;" x1="928" x2="1316" y1="918.9824" y2="918.9824"/><ellipse cx="938" cy="933.793" fill="#84BE84" rx="3" ry="3" style="stroke:#038048;stroke-width:1.0;"/><text fill="#000000" font-family="sans-serif" font-size="14" lengthAdjust="spacing" textLength="248" x="947" y="938.0898">TransactionException (String message)</text><ellipse cx="938" cy="952.4141" fill="#84BE84" rx="3" ry="3" style="stroke:#038048;stroke-width:1.0;"/><text fill="#000000" font-family="sans-serif" font-size="14" lengthAdjust="spacing" textLength="364" x="947" y="956.7109">TransactionException (String message, Throwable cause)</text></g><!--link GenericExtensionService to GenericCardSelection--><g id="link_GenericExtensionService_GenericCardSelection"><path codeLine="123" d="M558.328,463.8592 C529.102,488.7222 498.521,514.7352 469.609,539.3302 " fill="none" id="GenericExtensionService-to-GenericCardSelection" style="stroke:#3498DB;stroke-width:2.0;stroke-dasharray:7.0,7.0;"/><polygon fill="#3498DB" points="465.725,542.6342,475.1719,539.8492,469.5334,539.3944,469.9882,533.7559,465.725,542.6342" style="stroke:#3498DB;stroke-width:2.0;"/><polygon fill="#000000" points="519.1916,506.6255,527.9854,503.0033,524.1768,498.5262,519.1916,506.6255" style="stroke:#000000;stroke-width:1.0;"/><text fill="#000000" font-family="sans-serif" font-size="13" lengthAdjust="spacing" textLength="36" x="532" y="508.7686">create</text></g><!--link GenericExtensionService to CardTransactionManager--><g id="link_GenericExtensionService_CardTransactionManager"><path codeLine="124" d="M827.288,463.8592 C856.609,494.2282 887.589,526.3142 915.706,555.4352 " fill="none" id="GenericExtensionService-to-CardTransactionManager" style="stroke:#3498DB;stroke-width:2.0;stroke-dasharray:7.0,7.0;"/><polygon fill="#3498DB" points="919.475,559.3402,916.1016,550.0871,916.0022,555.7431,910.3462,555.6437,919.475,559.3402" style="stroke:#3498DB;stroke-width:2.0;"/><polygon fill="#000000" points="877.473,506.9828,873.3046,498.4343,869.076,502.5171,877.473,506.9828" style="stroke:#000000;stroke-width:1.0;"/><text fill="#000000" font-family="sans-serif" font-size="13" lengthAdjust="spacing" textLength="36" x="883" y="508.7686">create</text></g><!--reverse link GenericCardSelection to FileOccurrence--><g id="link_GenericCardSelection_FileOccurrence"><path codeLine="126" d="M265.148,787.4222 C262.677,792.9082 260.283,798.3642 258,803.7402 C251.38,819.3272 244.99,836.5002 239.4,852.5132 " fill="none" id="GenericCardSelection-backto-FileOccurrence" style="stroke:#181818;stroke-width:2.0;"/><ellipse cx="268.0914" cy="781.0169" fill="#FFFFFF" rx="8" ry="8" style="stroke:#181818;stroke-width:2.0;"/><line style="stroke:#181818;stroke-width:2.0;" x1="264.7519" x2="271.431" y1="788.2865" y2="773.7472"/><line style="stroke:#181818;stroke-width:2.0;" x1="260.8218" x2="275.3611" y1="777.6773" y2="784.3564"/></g><!--link GenericCardSelection to FileOccurrence--><g id="link_GenericCardSelection_FileOccurrence"><path codeLine="127" d="M283.285,773.8202 C276.245,790.2792 269.003,806.9722 262,822.7402 C258.398,830.8512 254.546,839.3382 250.691,847.7222 " fill="none" id="GenericCardSelection-to-FileOccurrence" style="stroke:#27AE60;stroke-width:2.0;stroke-dasharray:7.0,7.0;"/><polygon fill="#27AE60" points="248.551,852.3672,255.9506,845.8675,250.6437,847.8262,248.685,842.5193,248.551,852.3672" style="stroke:#27AE60;stroke-width:2.0;"/><polygon fill="#000000" points="272.9823,817.9606,279.3214,810.8706,273.9433,808.4987,272.9823,817.9606" style="stroke:#000000;stroke-width:1.0;"/><text fill="#000000" font-family="sans-serif" font-size="13" lengthAdjust="spacing" textLength="21" x="284" y="818.7686">use</text></g><!--reverse link GenericCardSelection to FileControlInformation--><g id="link_GenericCardSelection_FileControlInformation"><path codeLine="128" d="M356.881,788.6432 C360.231,800.2922 363.932,811.8082 368,822.7402 C371.644,832.5322 376.158,842.5912 380.947,852.2732 " fill="none" id="GenericCardSelection-backto-FileControlInformation" style="stroke:#181818;stroke-width:2.0;"/><ellipse cx="354.9411" cy="781.5646" fill="#FFFFFF" rx="8" ry="8" style="stroke:#181818;stroke-width:2.0;"/><line style="stroke:#181818;stroke-width:2.0;" x1="357.0562" x2="352.826" y1="789.2799" y2="773.8492"/><line style="stroke:#181818;stroke-width:2.0;" x1="347.2258" x2="362.6564" y1="783.6797" y2="779.4494"/></g><!--link GenericCardSelection to FileControlInformation--><g id="link_GenericCardSelection_FileControlInformation"><path codeLine="129" d="M369.397,773.7532 C377.899,799.1102 386.622,825.1262 394.189,847.6912 " fill="none" id="GenericCardSelection-to-FileControlInformation" style="stroke:#27AE60;stroke-width:2.0;stroke-dasharray:7.0,7.0;"/><polygon fill="#27AE60" points="395.785,852.4522,396.716,842.6475,394.1953,847.7117,389.1311,845.191,395.785,852.4522" style="stroke:#27AE60;stroke-width:2.0;"/><polygon fill="#000000" points="389.5896,818.1263,389.5005,808.6162,383.9276,810.4848,389.5896,818.1263" style="stroke:#000000;stroke-width:1.0;"/><text fill="#000000" font-family="sans-serif" font-size="13" lengthAdjust="spacing" textLength="21" x="397" y="818.7686">use</text></g><!--link CardTransactionManager to ChannelControl--><g id="link_CardTransactionManager_ChannelControl"><path codeLine="131" d="M939.657,756.8872 C910.795,794.7962 879.138,836.3772 855.787,867.0492 " fill="none" id="CardTransactionManager-to-ChannelControl" style="stroke:#27AE60;stroke-width:2.0;stroke-dasharray:7.0,7.0;"/><polygon fill="#27AE60" points="852.693,871.1132,861.3271,866.3748,855.7215,867.1348,854.9615,861.5292,852.693,871.1132" style="stroke:#27AE60;stroke-width:2.0;"/><polygon fill="#000000" points="901.9712,817.364,909.7887,811.9475,905.112,808.387,901.9712,817.364" style="stroke:#000000;stroke-width:1.0;"/><text fill="#000000" font-family="sans-serif" font-size="13" lengthAdjust="spacing" textLength="21" x="914" y="818.7686">use</text></g><!--link CardTransactionManager to TransactionException--><g id="link_CardTransactionManager_TransactionException"><path codeLine="132" d="M1055.6,756.8872 C1070.38,791.5742 1086.47,829.3352 1099.1,859.0002 " fill="none" id="CardTransactionManager-to-TransactionException" style="stroke:#2C3E50;stroke-width:2.0;stroke-dasharray:7.0,7.0;"/><polygon fill="#2C3E50" points="1101.1,863.6902,1101.252,853.8425,1099.1401,859.0904,1093.8922,856.9784,1101.1,863.6902" style="stroke:#2C3E50;stroke-width:2.0;"/><polygon fill="#000000" points="1086.9596,817.9857,1086.1185,808.5124,1080.7108,810.8161,1086.9596,817.9857" style="stroke:#000000;stroke-width:1.0;"/><text fill="#000000" font-family="sans-serif" font-size="13" lengthAdjust="spacing" textLength="31" x="1094" y="818.7686">throw</text></g><!--SRC=[jLXjSzeu4FxEhz0b7vgGG58WfM4uPemjjqnJO82sbxcxOHHR45-Cx97i9aoc__rMiWss8w3fpVcJl5ezpsgrBvOZB_9f1S7pYQv3dw8QUb23caEuMrjIHhddrFuXtqdDz-vWkbc_h9-XayPbercxV5ThNfvMA7DHf80gRz3llwFPH_mPmm1UpI3sQSm5yeI8gK0kHHrq7qMXw5nSt4ShtmdyW3k1IqNT2LON2tuHaJkVahZcWWt9Qeq8Xi9Ribhea-YYyfjB5nwZo9n_cE3RjyX-Rr_RroLn0zaDksctIk8cmbUuZSlQBMIrhRvbbSHNo3HCssgKnEzGtpARPZidlXaCFw5cw_gzrSz9lqmnQhGD_Euo9vnzd8o-eORPn5UNqeMr6ff6Qn_S5TsJ2Ba1UnEXnu0_e4SlkaUCFgBlb0ilO2XO8701Y-AL3yigui5Z8U5aXKH4EGsYTKYDVi1ToatfQ7HiN5kcPMiL1mN5Vijeuokjebb4jAot_OPM4HSKSV-w2THgVtXeINjpgqoV297ep-uzvu5H8L0Urk0yUCnF0T8jzVtWyGKASHwMF8YPcpBRsCOcrfEbAbRBC2yjW9nGzm1Ujykfs-i1h8KjREw1tMZYTWl2etBlGVndmgsRW7KSSqYwWyIXKbFSBMpQxRtSM-NtkDKoh8n-8ozOSEV7X_cbajfFtxwo-tlPCzKq1LBkL5fW_i0fPGUfbr9BSL_RRMplvTxefgcMacVYCllwPyZNYjk0ECA7k9LgcivRwdMHEIcLvcWumyEPAfO-NQfA6eIg8C_d2b6WH3wVeuwILs46Fm4G8puonWF4wG9GcKF5LgUAkdUmYSvQ9KYlMdM8lmv5m6XKWwKh3nRNE2LWTrBSIUXLgzqBkQXNX73MX050rXQ2rIfWXzO4dB0btQuIb7_t70gC8eWv3BA6ibqljvxij589GKAM51q5V5cdZk-5WjOJgBhiI_MqBnqX8b0wHi_AX3D7dWWwwdPprYUzpOILqd5CLiwKjjVxYrMh2-aECFv30hLHcYPcAveTSxcmIWoG3rIsR7ZsB28IUSwFdG1B6WqOAC41efFJodPbL_N6ZagPmcdAZKofJvq8OCexGWuSQqJrEf9WYvy_Aga_IKzdp8E5vzCzoBiqqKcwom9zTaG5OSuGAP-16OAecS-4mU7p75rk4fsySCL4XV76o8tal9W3qnNXaTJFQ-Ry3LsfMjL42iH5_Zod4VVOKfwQgLB12BslQJFEEtUhbXXpK4rolbJwaGIrno1f5mGYv2YD2jb3iXZ_cR2GWPvRgZkcV9WNp-_vHL3kma0G3c1gVosb41rH0Fhe9DscanDg8lqWw3Xuf7p4B1AH3MQubKsWV3pz2gwr698LPD_TEg9__es8vvx-EaXgr-j018riIAIHuyHSrN9qKdfV55vV3sq6BEA1Fs2BWAz8aaexv0kj-1MKn7MdiGCDIInYVmhrBnRVe4UY4uXZ93RlXH2dB5uLehkuVnMS9PVeIcyUO32PpdGJDuPUFiH_QENZ2Vuw67sP7ZJtfTCsPclSVCXySw0NZxNYpvPsIwFv14_7e-4Kw-l9ZjhxVB0wXvp29n0rGZVUnZoyoAf8c7lwEe0iy_uJ08BUVuxKo6CY7OLliq4Z6G2D2yLYmCvHNyfzkgDaxAUTGBGJGSrxmXZrYvtxnXDHD-7gWNuWCq6QAMQ1f8IR35aBw6Iv1f_Yf662dC9hzq9fzaxXGWYN885oPk4dXuPoKA9FZgHC_v4-9HF_3xqkEJJuAYjAb7koGI5ymdWy7utnK3jhteocU6xOCpp96xBv69p4BF9MT6DjyRjFjnzbesuYdnlQ-ImRLk1sY9ZJrwcVevbqilpZ0Vqo5ZIhaZ_abS4G8d0yLJz4UeMuCMv7Nv8RnAvFp7gzfs_in-b_YaxwiOLwUp5sP8G6fQAbEuDlh68Dr-j9hbAjFqx-dNGGU6HhfHx-PQtTJwEfpIMwoewTAwSKuxYqSiz2RJGSPx-3EacoIN9rpDFPxKtoKosx7MKNd-FijzSpXCY_]--></g></svg>