<svg xmlns="http://www.w3.org/2000/svg" xmlns:xlink="http://www.w3.org/1999/xlink" contentStyleType="text/css" data-diagram-type="CLASS" height="975px" preserveAspectRatio="none" style="width:1246px;height:975px;background:#FFFFFF;" version="1.1" viewBox="0 0 1246 975" width="1246px" zoomAndPan="magnify"><title>Keyple - keyple-card-generic-java-lib - 3.2.+ (2025-11-06)</title><defs><filter height="1" id="bb38kcqh6v61u0" width="1" x="0" y="0"><feFlood flood-color="#FFFF00" result="flood"/><feComposite in="SourceGraphic" in2="flood" operator="over"/></filter><filter height="1" id="bb38kcqh6v61u1" width="1" x="0" y="0"><feFlood flood-color="#00FFFF" result="flood"/><feComposite in="SourceGraphic" in2="flood" operator="over"/></filter><filter height="1" id="bb38kcqh6v61u2" width="1" x="0" y="0"><feFlood flood-color="#FFA500" result="flood"/><feComposite in="SourceGraphic" in2="flood" operator="over"/></filter></defs><g><g class="title" data-source-line="1"><text fill="#000000" font-family="sans-serif" font-size="14" font-weight="bold" lengthAdjust="spacing" textLength="372.333" x="429.8335" y="25.1074">Keyple - keyple-card-generic-java-lib - 3.2.+ (2025-11-06)</text></g><g class="legend" data-source-line="54"><rect fill="#DDDDDD" height="103.1055" rx="7.5" ry="7.5" style="stroke:#000000;stroke-width:1;" width="239.2266" x="496.3867" y="51.6211"/><text fill="#000000" font-family="sans-serif" font-size="14" lengthAdjust="spacing" text-decoration="underline" textLength="86.3857" x="501.3867" y="71.7285">Colors legend</text><text fill="#000000" font-family="sans-serif" font-size="14" lengthAdjust="spacing" textLength="3.8896" x="591.6621" y="71.7285">:</text><ellipse cx="506.8867" cy="86.3633" fill="#000000" rx="2.5" ry="2.5"/><text fill="#000000" font-family="sans-serif" font-size="14" lengthAdjust="spacing" text-decoration="underline" textLength="147.8477" x="513.3867" y="90.3496">External API references</text><text fill="#000000" font-family="sans-serif" font-size="14" lengthAdjust="spacing" textLength="3.8896" x="665.124" y="90.3496">:</text><rect fill="#000000" height="3.5" width="3.5" x="510.3867" y="102.4844"/><text fill="#000000" filter="url(#bb38kcqh6v61u0)" font-family="sans-serif" font-size="14" font-weight="bold" lengthAdjust="spacing" textLength="153.2822" x="517.3867" y="108.9707">keypop-reader-java-api</text><rect fill="#000000" height="3.5" width="3.5" x="510.3867" y="121.1055"/><text fill="#000000" filter="url(#bb38kcqh6v61u1)" font-family="sans-serif" font-size="14" font-weight="bold" lengthAdjust="spacing" textLength="163.3857" x="517.3867" y="127.5918">keyple-common-java-api</text><rect fill="#000000" height="3.5" width="3.5" x="510.3867" y="139.7266"/><text fill="#000000" filter="url(#bb38kcqh6v61u2)" font-family="sans-serif" font-size="14" font-weight="bold" lengthAdjust="spacing" textLength="213.2266" x="517.3867" y="146.2129">keyple-service-resource-java-lib</text></g><!--cluster generic--><g class="cluster" data-entity="generic" data-source-line="62" data-uid="ent0002" id="cluster_generic"><path d="M8.5,173.7402 L218.0439,173.7402 A3.75,3.75 0 0 1 220.5439,176.2402 L227.5439,198.3613 L1236.5,198.3613 A2.5,2.5 0 0 1 1239,200.8613 L1239,966.2402 A2.5,2.5 0 0 1 1236.5,968.7402 L8.5,968.7402 A2.5,2.5 0 0 1 6,966.2402 L6,176.2402 A2.5,2.5 0 0 1 8.5,173.7402" fill="#F8F9F9" style="stroke:#000000;stroke-width:1.5;"/><line style="stroke:#000000;stroke-width:1.5;" x1="6" x2="227.5439" y1="198.3613" y2="198.3613"/><text fill="#000000" font-family="sans-serif" font-size="14" font-weight="bold" lengthAdjust="spacing" textLength="208.5439" x="10" y="190.8477">org.eclipse.keyple.card.generic</text></g><!--class GenericExtensionService--><g class="entity" data-entity="GenericExtensionService" data-source-line="63" data-uid="ent0003" id="entity_GenericExtensionService"><rect fill="#E9F7EF" height="253.4531" rx="2.5" ry="2.5" style="stroke:#27AE60;stroke-width:2;" width="1053.1748" x="95.5" y="210.7402"/><ellipse cx="517.4102" cy="234.3613" fill="#ADD1B2" rx="11" ry="11" style="stroke:#ADD1B2;stroke-width:1;"/><path d="M520.1758,230.2363 Q520.332,230.0176 520.5195,229.9082 Q520.707,229.7988 520.9258,229.7988 Q521.3008,229.7988 521.5352,230.0645 Q521.7695,230.3145 521.7695,230.9238 L521.7695,232.377 Q521.7695,232.9863 521.5352,233.252 Q521.3008,233.5176 520.9258,233.5176 Q520.582,233.5176 520.3789,233.3145 Q520.1758,233.127 520.0664,232.6113 Q520.0195,232.252 519.832,232.0645 Q519.5039,231.6895 518.8945,231.4707 Q518.2852,231.252 517.6602,231.252 Q516.8945,231.252 516.2539,231.5801 Q515.6289,231.9082 515.1289,232.6582 Q514.6445,233.4082 514.6445,234.4395 L514.6445,235.5332 Q514.6445,236.7676 515.5352,237.5957 Q516.4258,238.4082 518.0195,238.4082 Q518.957,238.4082 519.6133,238.1582 Q520.0039,238.002 520.4258,237.5645 Q520.6914,237.2988 520.832,237.2207 Q520.9883,237.1426 521.1914,237.1426 Q521.5195,237.1426 521.7695,237.4082 Q522.0352,237.6582 522.0352,238.002 Q522.0352,238.3457 521.6914,238.752 Q521.1914,239.3301 520.3945,239.6582 Q519.3164,240.1113 518.0195,240.1113 Q516.5039,240.1113 515.3008,239.4863 Q514.3164,238.9863 513.6289,237.9238 Q512.9414,236.8457 512.9414,235.5645 L512.9414,234.4082 Q512.9414,233.0801 513.5508,231.9395 Q514.1758,230.7832 515.2695,230.1738 Q516.3633,229.5488 517.5977,229.5488 Q518.332,229.5488 518.9727,229.7207 Q519.6289,229.877 520.1758,230.2363 Z " fill="#000000"/><ellipse cx="542.9102" cy="233.8613" fill="#84BE84" rx="3" ry="3" style="stroke:#038048;stroke-width:1;"/><text fill="#000000" font-family="sans-serif" font-size="14" lengthAdjust="spacing" textLength="16.3516" x="560.1689" y="230.8477">&lt;&lt;</text><text fill="#000000" filter="url(#bb38kcqh6v61u1)" font-family="sans-serif" font-size="14" lengthAdjust="spacing" textLength="134.6338" x="576.5205" y="230.8477">KeypleCardExtension</text><text fill="#000000" font-family="sans-serif" font-size="14" lengthAdjust="spacing" textLength="16.3516" x="711.1543" y="230.8477">&gt;&gt;</text><text fill="#000000" font-family="sans-serif" font-size="14" font-weight="bold" lengthAdjust="spacing" textLength="28.7793" x="548.9102" y="249.4688">final</text><text fill="#000000" font-family="sans-serif" font-size="14" lengthAdjust="spacing" textLength="157.1855" x="581.5791" y="249.4688">GenericExtensionService</text><line style="stroke:#27AE60;stroke-width:2;" x1="96.5" x2="1147.6748" y1="257.9824" y2="257.9824"/><line style="stroke:#27AE60;stroke-width:1;" x1="96.5" x2="1147.6748" y1="265.9824" y2="265.9824"/><ellipse cx="106.5" cy="280.793" fill="#84BE84" rx="3" ry="3" style="stroke:#038048;stroke-width:1;"/><text fill="#000000" font-family="sans-serif" font-size="14" lengthAdjust="spacing" text-decoration="underline" textLength="246.6748" x="115.5" y="285.0898">GenericExtensionService getInstance ()</text><text fill="#000000" font-family="sans-serif" font-size="14" lengthAdjust="spacing" textLength="3.8896" x="115.5" y="303.7109">&#160;</text><ellipse cx="106.5" cy="318.0352" fill="#84BE84" rx="3" ry="3" style="stroke:#038048;stroke-width:1;"/><text fill="#000000" font-family="sans-serif" font-size="14" lengthAdjust="spacing" textLength="452.8945" x="115.5" y="322.332">GenericCardSelectionExtension createGenericCardSelectionExtension ()</text><ellipse cx="106.5" cy="336.6563" fill="#84BE84" rx="3" ry="3" style="stroke:#038048;stroke-width:1;"/><text fill="#000000" filter="url(#bb38kcqh6v61u2)" font-family="sans-serif" font-size="14" lengthAdjust="spacing" textLength="191.4268" x="115.5" y="340.9531">CardResourceProfileExtension</text><text fill="#000000" font-family="sans-serif" font-size="14" lengthAdjust="spacing" textLength="238.8887" x="310.8164" y="340.9531">createCardResourceProfileExtension (</text><text fill="#000000" filter="url(#bb38kcqh6v61u0)" font-family="sans-serif" font-size="14" lengthAdjust="spacing" textLength="182.8613" x="549.7051" y="340.9531">IsoCardSelector cardSelector</text><text fill="#000000" font-family="sans-serif" font-size="14" lengthAdjust="spacing" textLength="410.1084" x="732.5664" y="340.9531">, GenericCardSelectionExtension genericCardSelectionExtension)</text><ellipse cx="106.5" cy="355.2773" fill="#84BE84" rx="3" ry="3" style="stroke:#038048;stroke-width:1;"/><text fill="#000000" font-family="sans-serif" font-size="14" lengthAdjust="spacing" textLength="313.585" x="115.5" y="359.5742">CardTransactionManager createCardTransaction (</text><text fill="#000000" filter="url(#bb38kcqh6v61u0)" font-family="sans-serif" font-size="14" lengthAdjust="spacing" textLength="76.2617" x="429.085" y="359.5742">CardReader</text><text fill="#000000" font-family="sans-serif" font-size="14" lengthAdjust="spacing" textLength="77.041" x="509.2363" y="359.5742">cardReader,</text><text fill="#000000" filter="url(#bb38kcqh6v61u0)" font-family="sans-serif" font-size="14" lengthAdjust="spacing" textLength="67.6826" x="590.167" y="359.5742">SmartCard</text><text fill="#000000" font-family="sans-serif" font-size="14" lengthAdjust="spacing" textLength="31.8965" x="661.7393" y="359.5742">card)</text><text fill="#000000" font-family="sans-serif" font-size="14" lengthAdjust="spacing" textLength="3.8896" x="115.5" y="378.1953">&#160;</text><ellipse cx="106.5" cy="415.1406" fill="#84BE84" rx="3" ry="3" style="stroke:#038048;stroke-width:1;"/><text fill="#000000" font-family="sans-serif" font-size="14" lengthAdjust="spacing" textLength="197.6338" x="115.5" y="419.4375">String getCommonApiVersion ()</text><ellipse cx="106.5" cy="433.7617" fill="#84BE84" rx="3" ry="3" style="stroke:#038048;stroke-width:1;"/><text fill="#000000" font-family="sans-serif" font-size="14" lengthAdjust="spacing" textLength="186.7578" x="115.5" y="438.0586">String getReaderApiVersion ()</text><ellipse cx="106.5" cy="452.3828" fill="#84BE84" rx="3" ry="3" style="stroke:#038048;stroke-width:1;"/><text fill="#000000" font-family="sans-serif" font-size="14" lengthAdjust="spacing" textLength="171.1855" x="115.5" y="456.6797">String getCardApiVersion ()</text><line style="stroke:#27AE60;stroke-width:1;" x1="96.5" x2="549.7324" y1="395.0195" y2="395.0195"/><text fill="#000000" font-family="sans-serif" font-size="14" font-weight="bold" lengthAdjust="spacing" textLength="144.71" x="549.7324" y="400.3164">KeypleCardExtension</text><line style="stroke:#27AE60;stroke-width:1;" x1="694.4424" x2="1147.6748" y1="395.0195" y2="395.0195"/></g><!--class GenericCardSelectionExtension--><g class="entity" data-entity="GenericCardSelectionExtension" data-source-line="76" data-uid="ent0004" id="entity_GenericCardSelectionExtension"><rect fill="#FEFECE" height="81.8633" rx="2.5" ry="2.5" style="stroke:#D4AC0D;stroke-width:2;" width="495.2119" x="22.5" y="617.2402"/><ellipse cx="161.1357" cy="640.8613" fill="#B4A7E5" rx="11" ry="11" style="stroke:#B4A7E5;stroke-width:1;"/><path d="M162.0889,637.502 L162.0889,644.1582 L163.8076,644.1582 Q164.417,644.1582 164.6826,644.3926 Q164.9482,644.627 164.9482,645.0176 Q164.9482,645.3926 164.6826,645.627 Q164.417,645.8613 163.8076,645.8613 L158.667,645.8613 Q158.0576,645.8613 157.792,645.627 Q157.5264,645.3926 157.5264,645.002 Q157.5264,644.627 157.792,644.3926 Q158.0576,644.1582 158.667,644.1582 L160.3857,644.1582 L160.3857,637.502 L158.667,637.502 Q158.0576,637.502 157.792,637.2676 Q157.5264,637.0332 157.5264,636.6426 Q157.5264,636.2676 157.792,636.0332 Q158.0576,635.7988 158.667,635.7988 L163.8076,635.7988 Q164.417,635.7988 164.6826,636.0332 Q164.9482,636.2676 164.9482,636.6426 Q164.9482,637.0332 164.6826,637.2676 Q164.417,637.502 163.8076,637.502 L162.0889,637.502 Z " fill="#000000"/><ellipse cx="186.6357" cy="640.3613" fill="#84BE84" rx="3" ry="3" style="stroke:#038048;stroke-width:1;"/><text fill="#000000" font-family="sans-serif" font-size="14" font-style="italic" lengthAdjust="spacing" textLength="16.3516" x="200.7944" y="637.3477">&lt;&lt;</text><text fill="#000000" filter="url(#bb38kcqh6v61u0)" font-family="sans-serif" font-size="14" font-style="italic" lengthAdjust="spacing" textLength="149.4199" x="217.146" y="637.3477">CardSelectionExtension</text><text fill="#000000" font-family="sans-serif" font-size="14" font-style="italic" lengthAdjust="spacing" textLength="16.3516" x="366.5659" y="637.3477">&gt;&gt;</text><text fill="#000000" font-family="sans-serif" font-size="14" font-style="italic" lengthAdjust="spacing" textLength="198.4404" x="192.6357" y="655.9688">GenericCardSelectionExtension</text><line style="stroke:#D4AC0D;stroke-width:2;" x1="23.5" x2="516.7119" y1="664.4824" y2="664.4824"/><line style="stroke:#D4AC0D;stroke-width:2;" x1="23.5" x2="516.7119" y1="672.4824" y2="672.4824"/><ellipse cx="33.5" cy="687.293" fill="#84BE84" rx="3" ry="3" style="stroke:#038048;stroke-width:1;"/><text fill="#000000" font-family="sans-serif" font-size="14" lengthAdjust="spacing" textLength="469.2119" x="42.5" y="691.5898">GenericCardSelectionExtension addSuccessfulStatusWord (int statusWord)</text></g><!--class CardTransactionManager--><g class="entity" data-entity="CardTransactionManager" data-source-line="79" data-uid="ent0005" id="entity_CardTransactionManager"><rect fill="#FEFECE" height="230.832" rx="2.5" ry="2.5" style="stroke:#D4AC0D;stroke-width:2;" width="670.3213" x="553" y="542.7402"/><ellipse cx="782.687" cy="566.3613" fill="#B4A7E5" rx="11" ry="11" style="stroke:#B4A7E5;stroke-width:1;"/><path d="M783.6401,563.002 L783.6401,569.6582 L785.3589,569.6582 Q785.9683,569.6582 786.2339,569.8926 Q786.4995,570.127 786.4995,570.5176 Q786.4995,570.8926 786.2339,571.127 Q785.9683,571.3613 785.3589,571.3613 L780.2183,571.3613 Q779.6089,571.3613 779.3433,571.127 Q779.0776,570.8926 779.0776,570.502 Q779.0776,570.127 779.3433,569.8926 Q779.6089,569.6582 780.2183,569.6582 L781.937,569.6582 L781.937,563.002 L780.2183,563.002 Q779.6089,563.002 779.3433,562.7676 Q779.0776,562.5332 779.0776,562.1426 Q779.0776,561.7676 779.3433,561.5332 Q779.6089,561.2988 780.2183,561.2988 L785.3589,561.2988 Q785.9683,561.2988 786.2339,561.5332 Q786.4995,561.7676 786.4995,562.1426 Q786.4995,562.5332 786.2339,562.7676 Q785.9683,563.002 785.3589,563.002 L783.6401,563.002 Z " fill="#000000"/><ellipse cx="808.187" cy="565.8613" fill="#84BE84" rx="3" ry="3" style="stroke:#038048;stroke-width:1;"/><text fill="#0000FF" font-family="sans-serif" font-size="14" font-style="italic" lengthAdjust="spacing" textLength="16.3516" x="814.187" y="562.8477">&lt;&lt;</text><text fill="#0000FF" filter="url(#bb38kcqh6v61u0)" font-family="sans-serif" font-size="14" font-style="italic" lengthAdjust="spacing" textLength="158.7441" x="830.5386" y="562.8477">CardTransactionManager</text><text fill="#0000FF" font-family="sans-serif" font-size="14" font-style="italic" lengthAdjust="spacing" textLength="16.3516" x="989.2827" y="562.8477">&gt;&gt;</text><text fill="#000000" font-family="sans-serif" font-size="14" font-style="italic" lengthAdjust="spacing" textLength="158.7441" x="830.5386" y="581.4688">CardTransactionManager</text><line style="stroke:#D4AC0D;stroke-width:2;" x1="554" x2="1222.3213" y1="589.9824" y2="589.9824"/><line style="stroke:#D4AC0D;stroke-width:2;" x1="554" x2="1222.3213" y1="597.9824" y2="597.9824"/><ellipse cx="564" cy="612.793" fill="#84BE84" rx="3" ry="3" style="stroke:#038048;stroke-width:1;"/><text fill="#000000" font-family="sans-serif" font-size="14" lengthAdjust="spacing" textLength="392.9844" x="573" y="617.0898">CardTransactionManager prepareApdu (String apduCommand)</text><ellipse cx="564" cy="631.4141" fill="#84BE84" rx="3" ry="3" style="stroke:#038048;stroke-width:1;"/><text fill="#000000" font-family="sans-serif" font-size="14" lengthAdjust="spacing" textLength="390.6533" x="573" y="635.7109">CardTransactionManager prepareApdu (byte[] apduCommand)</text><ellipse cx="564" cy="650.0352" fill="#84BE84" rx="3" ry="3" style="stroke:#038048;stroke-width:1;"/><text fill="#000000" font-family="sans-serif" font-size="14" lengthAdjust="spacing" textLength="603.8936" x="573" y="654.332">CardTransactionManager prepareApdu (byte cla, byte ins, byte p1, byte p2, byte[] dataIn, Byte le)</text><text fill="#000000" font-family="sans-serif" font-size="14" lengthAdjust="spacing" textLength="3.8896" x="573" y="672.9531">&#160;</text><ellipse cx="564" cy="687.2773" fill="#84BE84" rx="3" ry="3" style="stroke:#038048;stroke-width:1;"/><text fill="#FF0000" font-family="sans-serif" font-size="14" lengthAdjust="spacing" text-decoration="line-through" textLength="641.9834" x="573" y="691.5742">List&lt;byte[]&gt; processApdusToByteArrays (ChannelControl channelControl) throws TransactionException</text><ellipse cx="564" cy="705.8984" fill="#84BE84" rx="3" ry="3" style="stroke:#038048;stroke-width:1;"/><text fill="#FF0000" font-family="sans-serif" font-size="14" lengthAdjust="spacing" text-decoration="line-through" textLength="644.3213" x="573" y="710.1953">List&lt;String&gt; processApdusToHexStrings (ChannelControl channelControl) throws TransactionException</text><text fill="#000000" font-family="sans-serif" font-size="14" lengthAdjust="spacing" textLength="3.8896" x="573" y="728.8164">&#160;</text><ellipse cx="564" cy="743.1406" fill="#84BE84" rx="3" ry="3" style="stroke:#038048;stroke-width:1;"/><text fill="#0000FF" font-family="sans-serif" font-size="14" lengthAdjust="spacing" textLength="267.6816" x="573" y="747.4375">List&lt;byte[]&gt; popResponsesAsByteArrays ()</text><ellipse cx="564" cy="761.7617" fill="#84BE84" rx="3" ry="3" style="stroke:#038048;stroke-width:1;"/><text fill="#0000FF" font-family="sans-serif" font-size="14" lengthAdjust="spacing" textLength="270.0195" x="573" y="766.0586">List&lt;String&gt; popResponsesAsHexStrings ()</text></g><!--class ChannelControl--><g class="entity" data-entity="ChannelControl" data-source-line="90" data-uid="ent0006" id="entity_ChannelControl"><rect fill="#E9F7EF" height="85.2422" rx="2.5" ry="2.5" style="stroke:#27AE60;stroke-width:2;" width="140.2822" x="626" y="860.2402"/><ellipse cx="641" cy="876.2402" fill="#EB937F" rx="11" ry="11" style="stroke:#EB93DF;stroke-width:1;"/><path d="M639.8594,877.0371 L639.8594,879.5371 L644.1875,879.5371 L644.1875,878.6152 Q644.1875,878.0059 644.4219,877.7402 Q644.6719,877.4746 645.0469,877.4746 Q645.4219,877.4746 645.6563,877.7402 Q645.8906,878.0059 645.8906,878.6152 L645.8906,881.2402 L637.8906,881.2402 Q637.2656,881.2402 637,881.0059 Q636.75,880.7715 636.75,880.3809 Q636.75,880.0059 637.0156,879.7715 Q637.2813,879.5371 637.8906,879.5371 L638.1563,879.5371 L638.1563,872.8809 L637.8906,872.8809 Q637.2656,872.8809 637,872.6465 Q636.75,872.4121 636.75,872.0215 Q636.75,871.6465 637,871.4121 Q637.2656,871.1777 637.8906,871.1777 L645.5156,871.1777 L645.5156,873.7715 Q645.5156,874.3809 645.2813,874.6465 Q645.0625,874.8965 644.6719,874.8965 Q644.2969,874.8965 644.0625,874.6465 Q643.8281,874.3809 643.8281,873.7715 L643.8281,872.8809 L639.8594,872.8809 L639.8594,875.334 L641.3438,875.334 Q641.3438,874.6777 641.4688,874.4902 Q641.7344,874.084 642.2031,874.084 Q642.5781,874.084 642.8125,874.3496 Q643.0469,874.5996 643.0469,875.209 L643.0469,877.1777 Q643.0469,877.7246 642.9219,877.9121 Q642.6563,878.3027 642.2031,878.3027 Q641.7344,878.3027 641.4688,877.8965 Q641.3438,877.709 641.3438,877.0371 L639.8594,877.0371 Z " fill="#000000"/><ellipse cx="660" cy="875.7402" fill="#84BE84" rx="3" ry="3" style="stroke:#038048;stroke-width:1;"/><text fill="#FF0000" font-family="sans-serif" font-size="14" lengthAdjust="spacing" text-decoration="line-through" textLength="97.2822" x="666" y="882.0371">ChannelControl</text><line style="stroke:#27AE60;stroke-width:2;" x1="627" x2="765.2822" y1="892.2402" y2="892.2402"/><text fill="#FF0000" font-family="sans-serif" font-size="14" lengthAdjust="spacing" text-decoration="line-through" textLength="84.8135" x="632" y="911.3477">KEEP_OPEN</text><text fill="#FF0000" font-family="sans-serif" font-size="14" lengthAdjust="spacing" text-decoration="line-through" textLength="101.1377" x="632" y="929.9688">CLOSE_AFTER</text><line style="stroke:#27AE60;stroke-width:2;" x1="627" x2="765.2822" y1="937.4824" y2="937.4824"/></g><!--class TransactionException--><g class="entity" data-entity="TransactionException" data-source-line="94" data-uid="ent0007" id="entity_TransactionException"><rect fill="#E9F7EF" height="100.4844" rx="2.5" ry="2.5" style="stroke:#27AE60;stroke-width:2;" width="385.502" x="801" y="852.7402"/><ellipse cx="900.353" cy="876.3613" fill="#ADD1B2" rx="11" ry="11" style="stroke:#ADD1B2;stroke-width:1;"/><path d="M903.1187,872.2363 Q903.2749,872.0176 903.4624,871.9082 Q903.6499,871.7988 903.8687,871.7988 Q904.2437,871.7988 904.478,872.0645 Q904.7124,872.3145 904.7124,872.9238 L904.7124,874.377 Q904.7124,874.9863 904.478,875.252 Q904.2437,875.5176 903.8687,875.5176 Q903.5249,875.5176 903.3218,875.3145 Q903.1187,875.127 903.0093,874.6113 Q902.9624,874.252 902.7749,874.0645 Q902.4468,873.6895 901.8374,873.4707 Q901.228,873.252 900.603,873.252 Q899.8374,873.252 899.1968,873.5801 Q898.5718,873.9082 898.0718,874.6582 Q897.5874,875.4082 897.5874,876.4395 L897.5874,877.5332 Q897.5874,878.7676 898.478,879.5957 Q899.3687,880.4082 900.9624,880.4082 Q901.8999,880.4082 902.5562,880.1582 Q902.9468,880.002 903.3687,879.5645 Q903.6343,879.2988 903.7749,879.2207 Q903.9312,879.1426 904.1343,879.1426 Q904.4624,879.1426 904.7124,879.4082 Q904.978,879.6582 904.978,880.002 Q904.978,880.3457 904.6343,880.752 Q904.1343,881.3301 903.3374,881.6582 Q902.2593,882.1113 900.9624,882.1113 Q899.4468,882.1113 898.2437,881.4863 Q897.2593,880.9863 896.5718,879.9238 Q895.8843,878.8457 895.8843,877.5645 L895.8843,876.4082 Q895.8843,875.0801 896.4937,873.9395 Q897.1187,872.7832 898.2124,872.1738 Q899.3062,871.5488 900.5405,871.5488 Q901.2749,871.5488 901.9155,871.7207 Q902.5718,871.877 903.1187,872.2363 Z " fill="#000000"/><ellipse cx="925.853" cy="875.8613" fill="#84BE84" rx="3" ry="3" style="stroke:#038048;stroke-width:1;"/><text fill="#000000" font-family="sans-serif" font-size="14" lengthAdjust="spacing" textLength="129.1855" x="950.9082" y="872.8477">&#171;RuntimeException&#187;</text><text fill="#000000" font-family="sans-serif" font-size="14" font-weight="bold" lengthAdjust="spacing" textLength="28.7793" x="931.853" y="891.4688">final</text><text fill="#000000" font-family="sans-serif" font-size="14" lengthAdjust="spacing" textLength="134.627" x="964.522" y="891.4688">TransactionException</text><line style="stroke:#27AE60;stroke-width:2;" x1="802" x2="1185.502" y1="899.9824" y2="899.9824"/><line style="stroke:#27AE60;stroke-width:2;" x1="802" x2="1185.502" y1="907.9824" y2="907.9824"/><ellipse cx="812" cy="922.793" fill="#84BE84" rx="3" ry="3" style="stroke:#038048;stroke-width:1;"/><text fill="#000000" font-family="sans-serif" font-size="14" lengthAdjust="spacing" textLength="245.1094" x="821" y="927.0898">TransactionException (String message)</text><ellipse cx="812" cy="941.4141" fill="#84BE84" rx="3" ry="3" style="stroke:#038048;stroke-width:1;"/><text fill="#000000" font-family="sans-serif" font-size="14" lengthAdjust="spacing" textLength="359.502" x="821" y="945.7109">TransactionException (String message, Throwable cause)</text></g><!--link GenericExtensionService to GenericCardSelectionExtension--><g class="link" data-entity-1="GenericExtensionService" data-entity-2="GenericCardSelectionExtension" data-source-line="104" data-uid="lnk8" id="link_GenericExtensionService_GenericCardSelectionExtension"><path codeLine="104" d="M483.39,463.8602 C423.17,518.4302 361.2758,574.521 318.8058,613.011" fill="none" id="GenericExtensionService-to-GenericCardSelectionExtension" style="stroke:#3498DB;stroke-width:2;stroke-dasharray:7,7;"/><polygon fill="#3498DB" points="314.36,617.0402,323.7149,613.9603,318.0649,613.6826,318.3426,608.0325,314.36,617.0402" style="stroke:#3498DB;stroke-width:2;"/><polygon fill="#000000" points="447.295,506.7433,455.9709,502.8472,452.0239,498.4917,447.295,506.7433" style="stroke:#000000;stroke-width:1;"/><text fill="#000000" font-family="sans-serif" font-size="13" lengthAdjust="spacing" textLength="36.1309" x="460" y="508.7686">create</text></g><!--link GenericExtensionService to CardTransactionManager--><g class="link" data-entity-1="GenericExtensionService" data-entity-2="CardTransactionManager" data-source-line="105" data-uid="lnk9" id="link_GenericExtensionService_CardTransactionManager"><path codeLine="105" d="M726.75,463.8602 C748.41,489.8402 767.2768,512.4627 788.5968,538.0227" fill="none" id="GenericExtensionService-to-CardTransactionManager" style="stroke:#3498DB;stroke-width:2;stroke-dasharray:7,7;"/><polygon fill="#3498DB" points="792.44,542.6302,789.7469,533.1567,789.2373,538.7906,783.6034,538.2811,792.44,542.6302" style="stroke:#3498DB;stroke-width:2;"/><polygon fill="#000000" points="770.2023,507.2257,766.6664,498.3969,762.1522,502.1614,770.2023,507.2257" style="stroke:#000000;stroke-width:1;"/><text fill="#000000" font-family="sans-serif" font-size="13" lengthAdjust="spacing" textLength="36.1309" x="776" y="508.7686">create</text></g><!--link CardTransactionManager to ChannelControl--><g class="link" data-entity-1="CardTransactionManager" data-entity-2="ChannelControl" data-source-line="107" data-uid="lnk10" id="link_CardTransactionManager_ChannelControl"><path codeLine="107" d="M797.34,773.7402 C772.87,804.6502 751.6645,831.4362 732.6545,855.4462" fill="none" id="CardTransactionManager-to-ChannelControl" style="stroke:#27AE60;stroke-width:2;stroke-dasharray:7,7;"/><polygon fill="#27AE60" points="728.93,860.1502,737.6528,855.5771,732.0337,856.2302,731.3807,850.6111,728.93,860.1502" style="stroke:#27AE60;stroke-width:2;"/><polygon fill="#000000" points="770.8964,817.3059,778.8151,812.0385,774.2066,808.39,770.8964,817.3059" style="stroke:#000000;stroke-width:1;"/><text fill="#000000" font-family="sans-serif" font-size="13" lengthAdjust="spacing" textLength="20.96" x="783" y="818.7686">use</text></g><!--link CardTransactionManager to TransactionException--><g class="link" data-entity-1="CardTransactionManager" data-entity-2="TransactionException" data-source-line="108" data-uid="lnk11" id="link_CardTransactionManager_TransactionException"><path codeLine="108" d="M938.05,773.7402 C950.17,801.4602 960.0876,824.1522 970.0676,846.9922" fill="none" id="CardTransactionManager-to-TransactionException" style="stroke:#2C3E50;stroke-width:2;stroke-dasharray:7,7;"/><polygon fill="#2C3E50" points="972.47,852.4902,972.5318,842.6416,970.468,847.9085,965.2011,845.8448,972.47,852.4902" style="stroke:#2C3E50;stroke-width:2;"/><polygon fill="#000000" points="963.0025,817.9672,962.0729,808.5022,956.687,810.8563,963.0025,817.9672" style="stroke:#000000;stroke-width:1;"/><text fill="#000000" font-family="sans-serif" font-size="13" lengthAdjust="spacing" textLength="31.7891" x="970" y="818.7686">throw</text></g><!--SRC=[fLTjSzeu4FxEhzXhFZGX0H8WfM4uPemjjvccIIRGwsJkRXZ55iGN8taakocJwN-_bMoCJGoqKpw9rRFxx9jMSXp48Qi1_ZwnPHGoQC2JMJGyAlt6d74c0w_n7_r66s7mWDkTPhjv38Vjq_Pvu-oiSVhkgCQu3x4nL7iBV_u9au_aCy45_hL54h94AWYKIfW2dq4V7kCuKlrMwp5UX9u8XVI4prJJ4ulMJBPY-X0ocZHyz27LhX3XKWLpteX26hTgV_Xi5d06zlJ37Ra_0_UzU-5UR8ZRuBRTZjlT47U0d9CUsKHtmUav8yVP49-3RTckqzuGluEHOtViNa5yTNdz2JhTY_VEg23zCYRGxbdatMb1EFbuT_CLsdQ7d9_g53OQC8wN8QOhVgGn-8A_ZU5Po2Tu3k97uEmPlZ6f0i51p01JmEDa4Q9QJJq5FAAIBa35J38HBoDcZOJqcRHrek70kd1inwq4NfQ0ewxL8-ULGBjiqN7EHkrA82a1oUYYWzGcFdBjQ7yBMdP8bKhnayV0U-9CAIYQjQGKpyKjj7JFmb0ylx92lQUv50dtCsQNkCGcrMGPnEbQzgc39k-OlyVUO22PFnoYMOSunDvXDaUINXVRe_OOOF-lXEiq8Ujj8l7GxIME3CnmTudjzdPohy7lIRThEIlwN5xou25CzlDha8bdv9wxevtiAsXs13BkJ5fY_Y0Putkfvnfbk2_S7d5tSkVOxAXbv2ln9lloPyYNXjl2FYBxk0qqEyvhwcMPEHsLzitrX5nFpB0CsTnCKX6PWJoT6eiAKlbq2dqZh-CE-Ow6E0t1khq4oMPebNjChJ5r63nW4FsbEI33UbrFTH4r9AFeQZhFQHJKwuEMnWtBMjwIyan7tmHYiH1yduwGbC_PMain-Itm638gaKXShEwGjRwEDWskLejGGkSCtWWvRp8l32B5cgcffhwAcjbLz0QeWcmDByQ5OqyN0TuC1WNlq-lCHasTAww7PKOx7Fx3wtKSlJH4vp-afdBGE7NRq6pPAtHIwe3-uJ1RBOzVL4pZmFknrS2SnPSSGLWpE3oghJKp1Utsc8NCYr4frmOFgnUptHWqbrih5KRZxx9Qt4en2qAscPcCO1SI3ajzTQd4sWySerxXJsRq17OxFD-rMmX60oOOYg86yfboR1TPSBcmkU5b6f1k_3pGN79IFYZZ1PMnnXUHXGhXrLMlL_GMTbAn0yQn3FXSrzasXyUAWh-o6xjOe3KiTMOlJ7E-1lr8Zq70SIZCAFPKVXGA2NYTtC9vs5cYubdOKiINdsrXwllZnCDHfMP9ECPZagYlE3tX49q7bV_V6fTvBlRDBL8Hu-l-o6CSj8mgnbeDD45kwR6NlLqOIORt0RCYFu73h5mK_-ZgK-uV_Pg1XsNC_lxtDmq0JiKJCAk0gsmLdQqMxNI1D3wDwIK_WP6MXwmuZh9qw_VAG0sl0XKFKgKXyWbTHSsd9aBhulkCBXKSse-KSnRQWiTIXE2L_XxXanQVSGeA8P3l7elqOYTncjLDue_iUxhnUyIlc4s7bGCM4Gx5I735bAMA0H_jqCwzBcaNlIwrEkF98k_oBFfoM6cVbYEjke_ADZuHSZkzkINNM_RjgvincLhkXDmLtSalrhk4ny62vGahtw5LAJL-LcrKUdjSYLoTf0NM6vlywDVW9p3H5TUVZZZ54yLMcVwXtrwMKi8Bg5PKsLliohg_-P8-nRPTtCtcSCyaFCY-_FhPpGJ3dSQsdEOAAxKjK6Ebt0y7wNTc7p1erDoXM9d7WzKNQJyzCvhS96WykRzAl-jNhxNLG-nWzUNzWidz7m00]--></g></svg>