<?xml version="1.0" encoding="us-ascii" standalone="no"?><svg xmlns="http://www.w3.org/2000/svg" xmlns:xlink="http://www.w3.org/1999/xlink" contentStyleType="text/css" height="997px" preserveAspectRatio="none" style="width:1376px;height:997px;background:#FFFFFF;" version="1.1" viewBox="0 0 1376 997" width="1376px" zoomAndPan="magnify"><defs><filter height="1" id="bqe1up33ucbx70" width="1" x="0" y="0"><feFlood flood-color="#FFFF00" result="flood"/><feComposite in="SourceGraphic" in2="flood" operator="over"/></filter><filter height="1" id="bqe1up33ucbx71" width="1" x="0" y="0"><feFlood flood-color="#00FFFF" result="flood"/><feComposite in="SourceGraphic" in2="flood" operator="over"/></filter><filter height="1" id="bqe1up33ucbx72" width="1" x="0" y="0"><feFlood flood-color="#FFA500" result="flood"/><feComposite in="SourceGraphic" in2="flood" operator="over"/></filter></defs><g><text fill="#000000" font-family="sans-serif" font-size="14" font-weight="bold" lengthAdjust="spacing" textLength="391" x="485.5" y="25.1074">Keyple - keyple-card-generic-java-lib - 3.0.+ (2023-10-04)</text><rect fill="#DDDDDD" height="103.1055" id="_legend" rx="7.5" ry="7.5" style="stroke:#000000;stroke-width:1.0;" width="255" x="553.5" y="51.6211"/><text fill="#000000" font-family="sans-serif" font-size="14" lengthAdjust="spacing" text-decoration="underline" textLength="88" x="558.5" y="71.7285">Colors legend</text><text fill="#000000" font-family="sans-serif" font-size="14" lengthAdjust="spacing" textLength="4" x="650.5" y="71.7285">:</text><ellipse cx="564" cy="86.3633" fill="#000000" rx="2.5" ry="2.5" style="stroke:#000000;stroke-width:0.0;"/><text fill="#000000" font-family="sans-serif" font-size="14" lengthAdjust="spacing" text-decoration="underline" textLength="148" x="570.5" y="90.3496">External API references</text><text fill="#000000" font-family="sans-serif" font-size="14" lengthAdjust="spacing" textLength="4" x="722.5" y="90.3496">:</text><rect fill="#000000" height="3.5" style="stroke:#000000;stroke-width:0.0;" width="3.5" x="567.5" y="102.4844"/><text fill="#0000FF" filter="url(#bqe1up33ucbx70)" font-family="sans-serif" font-size="14" font-weight="bold" lengthAdjust="spacing" textLength="163" x="574.5" y="108.9707">keypop-reader-java-api</text><rect fill="#000000" height="3.5" style="stroke:#000000;stroke-width:0.0;" width="3.5" x="567.5" y="121.1055"/><text fill="#000000" filter="url(#bqe1up33ucbx71)" font-family="sans-serif" font-size="14" font-weight="bold" lengthAdjust="spacing" textLength="170" x="574.5" y="127.5918">keyple-common-java-api</text><rect fill="#000000" height="3.5" style="stroke:#000000;stroke-width:0.0;" width="3.5" x="567.5" y="139.7266"/><text fill="#000000" filter="url(#bqe1up33ucbx72)" font-family="sans-serif" font-size="14" font-weight="bold" lengthAdjust="spacing" textLength="229" x="574.5" y="146.2129">keyple-service-resource-java-lib</text><!--cluster generic--><g id="cluster_generic"><path d="M8.5,173.7402 L231.5,173.7402 A3.75,3.75 0 0 1 234,176.2402 L241,198.3613 L1366.5,198.3613 A2.5,2.5 0 0 1 1369,200.8613 L1369,988.2402 A2.5,2.5 0 0 1 1366.5,990.7402 L8.5,990.7402 A2.5,2.5 0 0 1 6,988.2402 L6,176.2402 A2.5,2.5 0 0 1 8.5,173.7402 " fill="#F8F9F9" style="stroke:#000000;stroke-width:1.5;"/><line style="stroke:#000000;stroke-width:1.5;" x1="6" x2="241" y1="198.3613" y2="198.3613"/><text fill="#000000" font-family="sans-serif" font-size="14" font-weight="bold" lengthAdjust="spacing" textLength="222" x="10" y="190.8477">org.eclipse.keyple.card.generic</text></g><!--class GenericExtensionService--><g id="elem_GenericExtensionService"><rect codeLine="63" fill="#E9F7EF" height="253.4531" id="GenericExtensionService" rx="2.5" ry="2.5" style="stroke:#27AE60;stroke-width:2.0;" width="1163" x="105.5" y="210.7402"/><ellipse cx="581.25" cy="234.3613" fill="#ADD1B2" rx="11" ry="11" style="stroke:#181818;stroke-width:1.0;"/><path d="M584.0156,230.2363 Q584.1719,230.0176 584.3594,229.9082 Q584.5469,229.7988 584.7656,229.7988 Q585.1406,229.7988 585.375,230.0645 Q585.6094,230.3145 585.6094,230.9238 L585.6094,232.377 Q585.6094,232.9863 585.375,233.252 Q585.1406,233.5176 584.7656,233.5176 Q584.4219,233.5176 584.2188,233.3145 Q584.0156,233.127 583.9063,232.6113 Q583.8594,232.252 583.6719,232.0645 Q583.3438,231.6895 582.7344,231.4707 Q582.125,231.252 581.5,231.252 Q580.7344,231.252 580.0938,231.5801 Q579.4688,231.9082 578.9688,232.6582 Q578.4844,233.4082 578.4844,234.4395 L578.4844,235.5332 Q578.4844,236.7676 579.375,237.5957 Q580.2656,238.4082 581.8594,238.4082 Q582.7969,238.4082 583.4531,238.1582 Q583.8438,238.002 584.2656,237.5645 Q584.5313,237.2988 584.6719,237.2207 Q584.8281,237.1426 585.0313,237.1426 Q585.3594,237.1426 585.6094,237.4082 Q585.875,237.6582 585.875,238.002 Q585.875,238.3457 585.5313,238.752 Q585.0313,239.3301 584.2344,239.6582 Q583.1563,240.1113 581.8594,240.1113 Q580.3438,240.1113 579.1406,239.4863 Q578.1563,238.9863 577.4688,237.9238 Q576.7813,236.8457 576.7813,235.5645 L576.7813,234.4082 Q576.7813,233.0801 577.3906,231.9395 Q578.0156,230.7832 579.1094,230.1738 Q580.2031,229.5488 581.4375,229.5488 Q582.1719,229.5488 582.8125,229.7207 Q583.4688,229.877 584.0156,230.2363 Z " fill="#000000"/><ellipse cx="606.75" cy="233.8613" fill="#84BE84" rx="3" ry="3" style="stroke:#038048;stroke-width:1.0;"/><text fill="#000000" font-family="sans-serif" font-size="14" lengthAdjust="spacing" textLength="16" x="625.25" y="230.8477">&lt;&lt;</text><text fill="#000000" filter="url(#bqe1up33ucbx71)" font-family="sans-serif" font-size="14" lengthAdjust="spacing" textLength="135" x="641.25" y="230.8477">KeypleCardExtension</text><text fill="#000000" font-family="sans-serif" font-size="14" lengthAdjust="spacing" textLength="16" x="776.25" y="230.8477">&gt;&gt;</text><text fill="#000000" font-family="sans-serif" font-size="14" font-weight="bold" lengthAdjust="spacing" textLength="30" x="612.75" y="249.4688">final</text><text fill="#000000" font-family="sans-serif" font-size="14" lengthAdjust="spacing" textLength="158" x="646.75" y="249.4688">GenericExtensionService</text><line style="stroke:#27AE60;stroke-width:2.0;" x1="106.5" x2="1267.5" y1="257.9824" y2="257.9824"/><line style="stroke:#27AE60;stroke-width:1.0;" x1="106.5" x2="1267.5" y1="265.9824" y2="265.9824"/><ellipse cx="116.5" cy="280.793" fill="#84BE84" rx="3" ry="3" style="stroke:#038048;stroke-width:1.0;"/><text fill="#000000" font-family="sans-serif" font-size="14" lengthAdjust="spacing" text-decoration="underline" textLength="249" x="125.5" y="285.0898">GenericExtensionService getInstance ()</text><text fill="#000000" font-family="sans-serif" font-size="14" lengthAdjust="spacing" textLength="4" x="125.5" y="303.7109">&#160;</text><ellipse cx="116.5" cy="318.0352" fill="#84BE84" rx="3" ry="3" style="stroke:#038048;stroke-width:1.0;"/><text fill="#0000FF" font-family="sans-serif" font-size="14" lengthAdjust="spacing" textLength="458" x="125.5" y="322.332">GenericCardSelectionExtension createGenericCardSelectionExtension ()</text><ellipse cx="116.5" cy="336.6563" fill="#84BE84" rx="3" ry="3" style="stroke:#038048;stroke-width:1.0;"/><text fill="#000000" filter="url(#bqe1up33ucbx72)" font-family="sans-serif" font-size="14" lengthAdjust="spacing" textLength="193" x="125.5" y="340.9531">CardResourceProfileExtension</text><text fill="#000000" font-family="sans-serif" font-size="14" lengthAdjust="spacing" textLength="242" x="322.5" y="340.9531">createCardResourceProfileExtension (</text><text fill="#0000FF" filter="url(#bqe1up33ucbx70)" font-family="sans-serif" font-size="14" lengthAdjust="spacing" textLength="284" x="564.5" y="340.9531">CardSelector&lt;IsoCardSelector&gt; cardSelector</text><text fill="#000000" font-family="sans-serif" font-size="14" lengthAdjust="spacing" textLength="414" x="848.5" y="340.9531">, GenericCardSelectionExtension genericCardSelectionExtension)</text><ellipse cx="116.5" cy="355.2773" fill="#84BE84" rx="3" ry="3" style="stroke:#038048;stroke-width:1.0;"/><text fill="#000000" font-family="sans-serif" font-size="14" lengthAdjust="spacing" textLength="321" x="125.5" y="359.5742">CardTransactionManager createCardTransaction (</text><text fill="#000000" filter="url(#bqe1up33ucbx70)" font-family="sans-serif" font-size="14" lengthAdjust="spacing" textLength="78" x="446.5" y="359.5742">CardReader</text><text fill="#000000" font-family="sans-serif" font-size="14" lengthAdjust="spacing" textLength="79" x="528.5" y="359.5742">cardReader,</text><text fill="#000000" filter="url(#bqe1up33ucbx70)" font-family="sans-serif" font-size="14" lengthAdjust="spacing" textLength="68" x="611.5" y="359.5742">SmartCard</text><text fill="#000000" font-family="sans-serif" font-size="14" lengthAdjust="spacing" textLength="33" x="683.5" y="359.5742">card)</text><text fill="#000000" font-family="sans-serif" font-size="14" lengthAdjust="spacing" textLength="4" x="125.5" y="378.1953">&#160;</text><ellipse cx="116.5" cy="415.1406" fill="#84BE84" rx="3" ry="3" style="stroke:#038048;stroke-width:1.0;"/><text fill="#000000" font-family="sans-serif" font-size="14" lengthAdjust="spacing" textLength="199" x="125.5" y="419.4375">String getCommonApiVersion ()</text><ellipse cx="116.5" cy="433.7617" fill="#84BE84" rx="3" ry="3" style="stroke:#038048;stroke-width:1.0;"/><text fill="#000000" font-family="sans-serif" font-size="14" lengthAdjust="spacing" textLength="190" x="125.5" y="438.0586">String getReaderApiVersion ()</text><ellipse cx="116.5" cy="452.3828" fill="#84BE84" rx="3" ry="3" style="stroke:#038048;stroke-width:1.0;"/><text fill="#000000" font-family="sans-serif" font-size="14" lengthAdjust="spacing" textLength="174" x="125.5" y="456.6797">String getCardApiVersion ()</text><line style="stroke:#27AE60;stroke-width:1.0;" x1="106.5" x2="611.5" y1="395.0195" y2="395.0195"/><text fill="#000000" font-family="sans-serif" font-size="14" font-weight="bold" lengthAdjust="spacing" textLength="151" x="611.5" y="400.3164">KeypleCardExtension</text><line style="stroke:#27AE60;stroke-width:1.0;" x1="762.5" x2="1267.5" y1="395.0195" y2="395.0195"/></g><!--class GenericCardSelectionExtension--><g id="elem_GenericCardSelectionExtension"><rect codeLine="76" fill="#FEFECE" height="230.832" id="GenericCardSelectionExtension" rx="2.5" ry="2.5" style="stroke:#D4AC0D;stroke-width:2.0;" width="618" x="22" y="542.7402"/><ellipse cx="221.25" cy="566.3613" fill="#B4A7E5" rx="11" ry="11" style="stroke:#181818;stroke-width:1.0;"/><path d="M222.2031,563.002 L222.2031,569.6582 L223.9219,569.6582 Q224.5313,569.6582 224.7969,569.8926 Q225.0625,570.127 225.0625,570.5176 Q225.0625,570.8926 224.7969,571.127 Q224.5313,571.3613 223.9219,571.3613 L218.7813,571.3613 Q218.1719,571.3613 217.9063,571.127 Q217.6406,570.8926 217.6406,570.502 Q217.6406,570.127 217.9063,569.8926 Q218.1719,569.6582 218.7813,569.6582 L220.5,569.6582 L220.5,563.002 L218.7813,563.002 Q218.1719,563.002 217.9063,562.7676 Q217.6406,562.5332 217.6406,562.1426 Q217.6406,561.7676 217.9063,561.5332 Q218.1719,561.2988 218.7813,561.2988 L223.9219,561.2988 Q224.5313,561.2988 224.7969,561.5332 Q225.0625,561.7676 225.0625,562.1426 Q225.0625,562.5332 224.7969,562.7676 Q224.5313,563.002 223.9219,563.002 L222.2031,563.002 Z " fill="#000000"/><ellipse cx="246.75" cy="565.8613" fill="#84BE84" rx="3" ry="3" style="stroke:#038048;stroke-width:1.0;"/><text fill="#0000FF" font-family="sans-serif" font-size="14" font-style="italic" lengthAdjust="spacing" textLength="16" x="261.75" y="562.8477">&lt;&lt;</text><text fill="#0000FF" filter="url(#bqe1up33ucbx70)" font-family="sans-serif" font-size="14" font-style="italic" lengthAdjust="spacing" textLength="150" x="277.75" y="562.8477">CardSelectionExtension</text><text fill="#0000FF" font-family="sans-serif" font-size="14" font-style="italic" lengthAdjust="spacing" textLength="16" x="427.75" y="562.8477">&gt;&gt;</text><text fill="#0000FF" font-family="sans-serif" font-size="14" font-style="italic" lengthAdjust="spacing" textLength="200" x="252.75" y="581.4688">GenericCardSelectionExtension</text><line style="stroke:#D4AC0D;stroke-width:2.0;" x1="23" x2="639" y1="589.9824" y2="589.9824"/><line style="stroke:#D4AC0D;stroke-width:2.0;" x1="23" x2="639" y1="597.9824" y2="597.9824"/><ellipse cx="33" cy="612.793" fill="#84BE84" rx="3" ry="3" style="stroke:#038048;stroke-width:1.0;"/><text fill="#FF0000" font-family="sans-serif" font-size="14" lengthAdjust="spacing" textLength="404" x="42" y="617.0898">GenericCardSelection filterByCardProtocol (String cardProtocol)</text><text fill="#000000" font-family="sans-serif" font-size="14" lengthAdjust="spacing" textLength="4" x="42" y="635.7109">&#160;</text><ellipse cx="33" cy="650.0352" fill="#84BE84" rx="3" ry="3" style="stroke:#038048;stroke-width:1.0;"/><text fill="#FF0000" font-family="sans-serif" font-size="14" lengthAdjust="spacing" textLength="456" x="42" y="654.332">GenericCardSelection filterByPowerOnData (String powerOnDataRegex)</text><text fill="#000000" font-family="sans-serif" font-size="14" lengthAdjust="spacing" textLength="4" x="42" y="672.9531">&#160;</text><ellipse cx="33" cy="687.2773" fill="#84BE84" rx="3" ry="3" style="stroke:#038048;stroke-width:1.0;"/><text fill="#FF0000" font-family="sans-serif" font-size="14" lengthAdjust="spacing" textLength="308" x="42" y="691.5742">GenericCardSelection filterByDfName (byte[] aid)</text><ellipse cx="33" cy="705.8984" fill="#84BE84" rx="3" ry="3" style="stroke:#038048;stroke-width:1.0;"/><text fill="#FF0000" font-family="sans-serif" font-size="14" lengthAdjust="spacing" textLength="310" x="42" y="710.1953">GenericCardSelection filterByDfName (String aid)</text><ellipse cx="33" cy="724.5195" fill="#84BE84" rx="3" ry="3" style="stroke:#038048;stroke-width:1.0;"/><text fill="#FF0000" font-family="sans-serif" font-size="14" lengthAdjust="spacing" textLength="466" x="42" y="728.8164">GenericCardSelection setFileOccurrence (FileOccurrence fileOccurrence)</text><ellipse cx="33" cy="743.1406" fill="#84BE84" rx="3" ry="3" style="stroke:#038048;stroke-width:1.0;"/><text fill="#FF0000" font-family="sans-serif" font-size="14" lengthAdjust="spacing" textLength="592" x="42" y="747.4375">GenericCardSelection setFileControlInformation (FileControlInformation fileControlInformation)</text><ellipse cx="33" cy="761.7617" fill="#84BE84" rx="3" ry="3" style="stroke:#038048;stroke-width:1.0;"/><text fill="#000000" font-family="sans-serif" font-size="14" lengthAdjust="spacing" textLength="475" x="42" y="766.0586">GenericCardSelectionExtension addSuccessfulStatusWord (int statusWord)</text></g><!--class FileOccurrence--><g id="elem_FileOccurrence"><rect codeLine="87" fill="#E9F7EF" height="122.4844" id="FileOccurrence" rx="2.5" ry="2.5" style="stroke:#27AE60;stroke-width:2.0;" width="140" x="150" y="852.7402"/><ellipse cx="165" cy="868.7402" fill="#EB937F" rx="11" ry="11" style="stroke:#181818;stroke-width:1.0;"/><path d="M163.8594,869.5371 L163.8594,872.0371 L168.1875,872.0371 L168.1875,871.1152 Q168.1875,870.5059 168.4219,870.2402 Q168.6719,869.9746 169.0469,869.9746 Q169.4219,869.9746 169.6563,870.2402 Q169.8906,870.5059 169.8906,871.1152 L169.8906,873.7402 L161.8906,873.7402 Q161.2656,873.7402 161,873.5059 Q160.75,873.2715 160.75,872.8809 Q160.75,872.5059 161.0156,872.2715 Q161.2813,872.0371 161.8906,872.0371 L162.1563,872.0371 L162.1563,865.3809 L161.8906,865.3809 Q161.2656,865.3809 161,865.1465 Q160.75,864.9121 160.75,864.5215 Q160.75,864.1465 161,863.9121 Q161.2656,863.6777 161.8906,863.6777 L169.5156,863.6777 L169.5156,866.2715 Q169.5156,866.8809 169.2813,867.1465 Q169.0625,867.3965 168.6719,867.3965 Q168.2969,867.3965 168.0625,867.1465 Q167.8281,866.8809 167.8281,866.2715 L167.8281,865.3809 L163.8594,865.3809 L163.8594,867.834 L165.3438,867.834 Q165.3438,867.1777 165.4688,866.9902 Q165.7344,866.584 166.2031,866.584 Q166.5781,866.584 166.8125,866.8496 Q167.0469,867.0996 167.0469,867.709 L167.0469,869.6777 Q167.0469,870.2246 166.9219,870.4121 Q166.6563,870.8027 166.2031,870.8027 Q165.7344,870.8027 165.4688,870.3965 Q165.3438,870.209 165.3438,869.5371 L163.8594,869.5371 Z " fill="#000000"/><ellipse cx="184" cy="868.2402" fill="#84BE84" rx="3" ry="3" style="stroke:#038048;stroke-width:1.0;"/><text fill="#FF0000" font-family="sans-serif" font-size="14" lengthAdjust="spacing" textLength="97" x="190" y="874.5371">FileOccurrence</text><line style="stroke:#27AE60;stroke-width:2.0;" x1="151" x2="289" y1="884.7402" y2="884.7402"/><text fill="#FF0000" font-family="sans-serif" font-size="14" lengthAdjust="spacing" textLength="40" x="156" y="903.8477">FIRST</text><text fill="#FF0000" font-family="sans-serif" font-size="14" lengthAdjust="spacing" textLength="35" x="156" y="922.4688">LAST</text><text fill="#FF0000" font-family="sans-serif" font-size="14" lengthAdjust="spacing" textLength="35" x="156" y="941.0898">NEXT</text><text fill="#FF0000" font-family="sans-serif" font-size="14" lengthAdjust="spacing" textLength="69" x="156" y="959.7109">PREVIOUS</text><line style="stroke:#27AE60;stroke-width:2.0;" x1="151" x2="289" y1="967.2246" y2="967.2246"/></g><!--class FileControlInformation--><g id="elem_FileControlInformation"><rect codeLine="93" fill="#E9F7EF" height="122.4844" id="FileControlInformation" rx="2.5" ry="2.5" style="stroke:#27AE60;stroke-width:2.0;" width="182" x="325" y="852.7402"/><ellipse cx="340" cy="868.7402" fill="#EB937F" rx="11" ry="11" style="stroke:#181818;stroke-width:1.0;"/><path d="M338.8594,869.5371 L338.8594,872.0371 L343.1875,872.0371 L343.1875,871.1152 Q343.1875,870.5059 343.4219,870.2402 Q343.6719,869.9746 344.0469,869.9746 Q344.4219,869.9746 344.6563,870.2402 Q344.8906,870.5059 344.8906,871.1152 L344.8906,873.7402 L336.8906,873.7402 Q336.2656,873.7402 336,873.5059 Q335.75,873.2715 335.75,872.8809 Q335.75,872.5059 336.0156,872.2715 Q336.2813,872.0371 336.8906,872.0371 L337.1563,872.0371 L337.1563,865.3809 L336.8906,865.3809 Q336.2656,865.3809 336,865.1465 Q335.75,864.9121 335.75,864.5215 Q335.75,864.1465 336,863.9121 Q336.2656,863.6777 336.8906,863.6777 L344.5156,863.6777 L344.5156,866.2715 Q344.5156,866.8809 344.2813,867.1465 Q344.0625,867.3965 343.6719,867.3965 Q343.2969,867.3965 343.0625,867.1465 Q342.8281,866.8809 342.8281,866.2715 L342.8281,865.3809 L338.8594,865.3809 L338.8594,867.834 L340.3438,867.834 Q340.3438,867.1777 340.4688,866.9902 Q340.7344,866.584 341.2031,866.584 Q341.5781,866.584 341.8125,866.8496 Q342.0469,867.0996 342.0469,867.709 L342.0469,869.6777 Q342.0469,870.2246 341.9219,870.4121 Q341.6563,870.8027 341.2031,870.8027 Q340.7344,870.8027 340.4688,870.3965 Q340.3438,870.209 340.3438,869.5371 L338.8594,869.5371 Z " fill="#000000"/><ellipse cx="359" cy="868.2402" fill="#84BE84" rx="3" ry="3" style="stroke:#038048;stroke-width:1.0;"/><text fill="#FF0000" font-family="sans-serif" font-size="14" lengthAdjust="spacing" textLength="139" x="365" y="874.5371">FileControlInformation</text><line style="stroke:#27AE60;stroke-width:2.0;" x1="326" x2="506" y1="884.7402" y2="884.7402"/><text fill="#FF0000" font-family="sans-serif" font-size="14" lengthAdjust="spacing" textLength="22" x="331" y="903.8477">FCI</text><text fill="#FF0000" font-family="sans-serif" font-size="14" lengthAdjust="spacing" textLength="28" x="331" y="922.4688">FCP</text><text fill="#FF0000" font-family="sans-serif" font-size="14" lengthAdjust="spacing" textLength="30" x="331" y="941.0898">FMD</text><text fill="#FF0000" font-family="sans-serif" font-size="14" lengthAdjust="spacing" textLength="103" x="331" y="959.7109">NO_RESPONSE</text><line style="stroke:#27AE60;stroke-width:2.0;" x1="326" x2="506" y1="967.2246" y2="967.2246"/></g><!--class CardTransactionManager--><g id="elem_CardTransactionManager"><rect codeLine="99" fill="#FEFECE" height="196.9688" id="CardTransactionManager" rx="2.5" ry="2.5" style="stroke:#D4AC0D;stroke-width:2.0;" width="677" x="675.5" y="559.7402"/><ellipse cx="922.75" cy="575.7402" fill="#B4A7E5" rx="11" ry="11" style="stroke:#181818;stroke-width:1.0;"/><path d="M923.7031,572.3809 L923.7031,579.0371 L925.4219,579.0371 Q926.0313,579.0371 926.2969,579.2715 Q926.5625,579.5059 926.5625,579.8965 Q926.5625,580.2715 926.2969,580.5059 Q926.0313,580.7402 925.4219,580.7402 L920.2813,580.7402 Q919.6719,580.7402 919.4063,580.5059 Q919.1406,580.2715 919.1406,579.8809 Q919.1406,579.5059 919.4063,579.2715 Q919.6719,579.0371 920.2813,579.0371 L922,579.0371 L922,572.3809 L920.2813,572.3809 Q919.6719,572.3809 919.4063,572.1465 Q919.1406,571.9121 919.1406,571.5215 Q919.1406,571.1465 919.4063,570.9121 Q919.6719,570.6777 920.2813,570.6777 L925.4219,570.6777 Q926.0313,570.6777 926.2969,570.9121 Q926.5625,571.1465 926.5625,571.5215 Q926.5625,571.9121 926.2969,572.1465 Q926.0313,572.3809 925.4219,572.3809 L923.7031,572.3809 Z " fill="#000000"/><ellipse cx="948.25" cy="575.2402" fill="#84BE84" rx="3" ry="3" style="stroke:#038048;stroke-width:1.0;"/><text fill="#000000" font-family="sans-serif" font-size="14" font-style="italic" lengthAdjust="spacing" textLength="163" x="954.25" y="581.5371">CardTransactionManager</text><line style="stroke:#D4AC0D;stroke-width:2.0;" x1="676.5" x2="1351.5" y1="591.7402" y2="591.7402"/><line style="stroke:#D4AC0D;stroke-width:2.0;" x1="676.5" x2="1351.5" y1="599.7402" y2="599.7402"/><ellipse cx="686.5" cy="614.5508" fill="#84BE84" rx="3" ry="3" style="stroke:#038048;stroke-width:1.0;"/><text fill="#000000" font-family="sans-serif" font-size="14" lengthAdjust="spacing" textLength="400" x="695.5" y="618.8477">CardTransactionManager prepareApdu (String apduCommand)</text><ellipse cx="686.5" cy="633.1719" fill="#84BE84" rx="3" ry="3" style="stroke:#038048;stroke-width:1.0;"/><text fill="#000000" font-family="sans-serif" font-size="14" lengthAdjust="spacing" textLength="398" x="695.5" y="637.4688">CardTransactionManager prepareApdu (byte[] apduCommand)</text><ellipse cx="686.5" cy="651.793" fill="#84BE84" rx="3" ry="3" style="stroke:#038048;stroke-width:1.0;"/><text fill="#000000" font-family="sans-serif" font-size="14" lengthAdjust="spacing" textLength="616" x="695.5" y="656.0898">CardTransactionManager prepareApdu (byte cla, byte ins, byte p1, byte p2, byte[] dataIn, Byte le)</text><text fill="#000000" font-family="sans-serif" font-size="14" lengthAdjust="spacing" textLength="4" x="695.5" y="674.7109">&#160;</text><ellipse cx="686.5" cy="689.0352" fill="#84BE84" rx="3" ry="3" style="stroke:#038048;stroke-width:1.0;"/><text fill="#FF0000" font-family="sans-serif" font-size="14" lengthAdjust="spacing" textLength="335" x="695.5" y="693.332">CardTransactionManager prepareReleaseChannel ()</text><text fill="#000000" font-family="sans-serif" font-size="14" lengthAdjust="spacing" textLength="4" x="695.5" y="711.9531">&#160;</text><ellipse cx="686.5" cy="726.2773" fill="#84BE84" rx="3" ry="3" style="stroke:#038048;stroke-width:1.0;"/><text fill="#000000" font-family="sans-serif" font-size="14" lengthAdjust="spacing" textLength="262" x="695.5" y="730.5742">List&lt;byte[]&gt; processApdusToByteArrays (</text><text fill="#0000FF" font-family="sans-serif" font-size="14" lengthAdjust="spacing" textLength="199" x="957.5" y="730.5742">ChannelControl channelControl</text><text fill="#000000" font-family="sans-serif" font-size="14" lengthAdjust="spacing" textLength="190" x="1156.5" y="730.5742">) throws TransactionException</text><ellipse cx="686.5" cy="744.8984" fill="#84BE84" rx="3" ry="3" style="stroke:#038048;stroke-width:1.0;"/><text fill="#000000" font-family="sans-serif" font-size="14" lengthAdjust="spacing" textLength="262" x="695.5" y="749.1953">List&lt;String&gt; processApdusToHexStrings (</text><text fill="#0000FF" font-family="sans-serif" font-size="14" lengthAdjust="spacing" textLength="199" x="957.5" y="749.1953">ChannelControl channelControl</text><text fill="#000000" font-family="sans-serif" font-size="14" lengthAdjust="spacing" textLength="190" x="1156.5" y="749.1953">) throws TransactionException</text></g><!--class ChannelControl--><g id="elem_ChannelControl"><rect codeLine="109" fill="#E9F7EF" height="85.2422" id="ChannelControl" rx="2.5" ry="2.5" style="stroke:#27AE60;stroke-width:2.0;" width="142" x="750" y="871.2402"/><ellipse cx="765" cy="887.2402" fill="#EB937F" rx="11" ry="11" style="stroke:#181818;stroke-width:1.0;"/><path d="M763.8594,888.0371 L763.8594,890.5371 L768.1875,890.5371 L768.1875,889.6152 Q768.1875,889.0059 768.4219,888.7402 Q768.6719,888.4746 769.0469,888.4746 Q769.4219,888.4746 769.6563,888.7402 Q769.8906,889.0059 769.8906,889.6152 L769.8906,892.2402 L761.8906,892.2402 Q761.2656,892.2402 761,892.0059 Q760.75,891.7715 760.75,891.3809 Q760.75,891.0059 761.0156,890.7715 Q761.2813,890.5371 761.8906,890.5371 L762.1563,890.5371 L762.1563,883.8809 L761.8906,883.8809 Q761.2656,883.8809 761,883.6465 Q760.75,883.4121 760.75,883.0215 Q760.75,882.6465 761,882.4121 Q761.2656,882.1777 761.8906,882.1777 L769.5156,882.1777 L769.5156,884.7715 Q769.5156,885.3809 769.2813,885.6465 Q769.0625,885.8965 768.6719,885.8965 Q768.2969,885.8965 768.0625,885.6465 Q767.8281,885.3809 767.8281,884.7715 L767.8281,883.8809 L763.8594,883.8809 L763.8594,886.334 L765.3438,886.334 Q765.3438,885.6777 765.4688,885.4902 Q765.7344,885.084 766.2031,885.084 Q766.5781,885.084 766.8125,885.3496 Q767.0469,885.5996 767.0469,886.209 L767.0469,888.1777 Q767.0469,888.7246 766.9219,888.9121 Q766.6563,889.3027 766.2031,889.3027 Q765.7344,889.3027 765.4688,888.8965 Q765.3438,888.709 765.3438,888.0371 L763.8594,888.0371 Z " fill="#000000"/><ellipse cx="784" cy="886.7402" fill="#84BE84" rx="3" ry="3" style="stroke:#038048;stroke-width:1.0;"/><text fill="#0000FF" font-family="sans-serif" font-size="14" lengthAdjust="spacing" textLength="99" x="790" y="893.0371">ChannelControl</text><line style="stroke:#27AE60;stroke-width:2.0;" x1="751" x2="891" y1="903.2402" y2="903.2402"/><text fill="#0000FF" font-family="sans-serif" font-size="14" lengthAdjust="spacing" textLength="82" x="756" y="922.3477">KEEP_OPEN</text><text fill="#0000FF" font-family="sans-serif" font-size="14" lengthAdjust="spacing" textLength="101" x="756" y="940.9688">CLOSE_AFTER</text><line style="stroke:#27AE60;stroke-width:2.0;" x1="751" x2="891" y1="948.4824" y2="948.4824"/></g><!--class TransactionException--><g id="elem_TransactionException"><rect codeLine="113" fill="#FEFECE" height="100.4844" id="TransactionException" rx="2.5" ry="2.5" style="stroke:#D4AC0D;stroke-width:2.0;" width="390" x="927" y="863.7402"/><ellipse cx="1027.25" cy="887.3613" fill="#ADD1B2" rx="11" ry="11" style="stroke:#181818;stroke-width:1.0;"/><path d="M1030.0156,883.2363 Q1030.1719,883.0176 1030.3594,882.9082 Q1030.5469,882.7988 1030.7656,882.7988 Q1031.1406,882.7988 1031.375,883.0645 Q1031.6094,883.3145 1031.6094,883.9238 L1031.6094,885.377 Q1031.6094,885.9863 1031.375,886.252 Q1031.1406,886.5176 1030.7656,886.5176 Q1030.4219,886.5176 1030.2188,886.3145 Q1030.0156,886.127 1029.9063,885.6113 Q1029.8594,885.252 1029.6719,885.0645 Q1029.3438,884.6895 1028.7344,884.4707 Q1028.125,884.252 1027.5,884.252 Q1026.7344,884.252 1026.0938,884.5801 Q1025.4688,884.9082 1024.9688,885.6582 Q1024.4844,886.4082 1024.4844,887.4395 L1024.4844,888.5332 Q1024.4844,889.7676 1025.375,890.5957 Q1026.2656,891.4082 1027.8594,891.4082 Q1028.7969,891.4082 1029.4531,891.1582 Q1029.8438,891.002 1030.2656,890.5645 Q1030.5313,890.2988 1030.6719,890.2207 Q1030.8281,890.1426 1031.0313,890.1426 Q1031.3594,890.1426 1031.6094,890.4082 Q1031.875,890.6582 1031.875,891.002 Q1031.875,891.3457 1031.5313,891.752 Q1031.0313,892.3301 1030.2344,892.6582 Q1029.1563,893.1113 1027.8594,893.1113 Q1026.3438,893.1113 1025.1406,892.4863 Q1024.1563,891.9863 1023.4688,890.9238 Q1022.7813,889.8457 1022.7813,888.5645 L1022.7813,887.4082 Q1022.7813,886.0801 1023.3906,884.9395 Q1024.0156,883.7832 1025.1094,883.1738 Q1026.2031,882.5488 1027.4375,882.5488 Q1028.1719,882.5488 1028.8125,882.7207 Q1029.4688,882.877 1030.0156,883.2363 Z " fill="#000000"/><ellipse cx="1052.75" cy="886.8613" fill="#84BE84" rx="3" ry="3" style="stroke:#038048;stroke-width:1.0;"/><text fill="#000000" font-family="sans-serif" font-size="14" lengthAdjust="spacing" textLength="129" x="1079.25" y="883.8477">&#171;RuntimeException&#187;</text><text fill="#000000" font-family="sans-serif" font-size="14" font-weight="bold" lengthAdjust="spacing" textLength="30" x="1058.75" y="902.4688">final</text><text fill="#000000" font-family="sans-serif" font-size="14" lengthAdjust="spacing" textLength="136" x="1092.75" y="902.4688">TransactionException</text><line style="stroke:#D4AC0D;stroke-width:2.0;" x1="928" x2="1316" y1="910.9824" y2="910.9824"/><line style="stroke:#D4AC0D;stroke-width:2.0;" x1="928" x2="1316" y1="918.9824" y2="918.9824"/><ellipse cx="938" cy="933.793" fill="#84BE84" rx="3" ry="3" style="stroke:#038048;stroke-width:1.0;"/><text fill="#000000" font-family="sans-serif" font-size="14" lengthAdjust="spacing" textLength="248" x="947" y="938.0898">TransactionException (String message)</text><ellipse cx="938" cy="952.4141" fill="#84BE84" rx="3" ry="3" style="stroke:#038048;stroke-width:1.0;"/><text fill="#000000" font-family="sans-serif" font-size="14" lengthAdjust="spacing" textLength="364" x="947" y="956.7109">TransactionException (String message, Throwable cause)</text></g><!--link GenericExtensionService to GenericCardSelectionExtension--><g id="link_GenericExtensionService_GenericCardSelectionExtension"><path codeLine="123" d="M546.81,463.8602 C519.18,488.6202 490.27,514.5202 462.92,539.0302 " fill="none" id="GenericExtensionService-to-GenericCardSelectionExtension" style="stroke:#3498DB;stroke-width:2.0;stroke-dasharray:7.0,7.0;"/><polygon fill="#3498DB" points="458.9,542.6302,468.2713,539.6006,462.6228,539.2925,462.9309,533.6441,458.9,542.6302" style="stroke:#3498DB;stroke-width:2.0;"/><polygon fill="#000000" points="510.2762,506.7224,518.9739,502.8751,515.0513,498.4975,510.2762,506.7224" style="stroke:#000000;stroke-width:1.0;"/><text fill="#000000" font-family="sans-serif" font-size="13" lengthAdjust="spacing" textLength="36" x="523" y="508.7686">create</text></g><!--link GenericExtensionService to CardTransactionManager--><g id="link_GenericExtensionService_CardTransactionManager"><path codeLine="124" d="M815.77,463.8602 C847.11,494.4402 880.24,526.7502 910.25,556.0302 " fill="none" id="GenericExtensionService-to-CardTransactionManager" style="stroke:#3498DB;stroke-width:2.0;stroke-dasharray:7.0,7.0;"/><polygon fill="#3498DB" points="913.9,559.5902,910.2348,550.4488,910.3148,556.105,904.6585,556.185,913.9,559.5902" style="stroke:#3498DB;stroke-width:2.0;"/><polygon fill="#000000" points="868.579,506.8773,864.1568,498.4574,860.0523,502.6647,868.579,506.8773" style="stroke:#000000;stroke-width:1.0;"/><text fill="#000000" font-family="sans-serif" font-size="13" lengthAdjust="spacing" textLength="36" x="874" y="508.7686">create</text></g><!--reverse link GenericCardSelectionExtension to FileOccurrence--><g id="link_GenericCardSelectionExtension_FileOccurrence"><path codeLine="126" d="M265.15,787.4202 C262.68,792.9102 260.28,798.3602 258,803.7402 C251.38,819.3302 244.99,836.5002 239.4,852.5102 " fill="none" id="GenericCardSelectionExtension-backto-FileOccurrence" style="stroke:#181818;stroke-width:2.0;"/><ellipse cx="268.092" cy="781.0206" fill="#FFFFFF" rx="8" ry="8" style="stroke:#181818;stroke-width:2.0;"/><line style="stroke:#181818;stroke-width:2.0;" x1="264.7541" x2="271.43" y1="788.2909" y2="773.7502"/><line style="stroke:#181818;stroke-width:2.0;" x1="260.8217" x2="275.3624" y1="777.6826" y2="784.3585"/></g><!--link GenericCardSelectionExtension to FileOccurrence--><g id="link_GenericCardSelectionExtension_FileOccurrence"><path codeLine="127" d="M283.28,773.8202 C276.24,790.2802 269,806.9702 262,822.7402 C258.4,830.8502 254.55,839.3402 250.69,847.7202 " fill="none" id="GenericCardSelectionExtension-to-FileOccurrence" style="stroke:#27AE60;stroke-width:2.0;stroke-dasharray:7.0,7.0;"/><polygon fill="#27AE60" points="248.55,852.3702,255.9572,845.8793,250.648,847.8317,248.6956,842.5225,248.55,852.3702" style="stroke:#27AE60;stroke-width:2.0;"/><polygon fill="#000000" points="271.9825,817.9606,278.3213,810.8705,272.9432,808.4987,271.9825,817.9606" style="stroke:#000000;stroke-width:1.0;"/><text fill="#000000" font-family="sans-serif" font-size="13" lengthAdjust="spacing" textLength="21" x="283" y="818.7686">use</text></g><!--reverse link GenericCardSelectionExtension to FileControlInformation--><g id="link_GenericCardSelectionExtension_FileControlInformation"><path codeLine="128" d="M356.88,788.6402 C360.23,800.2902 363.93,811.8102 368,822.7402 C371.64,832.5302 376.16,842.5902 380.95,852.2702 " fill="none" id="GenericCardSelectionExtension-backto-FileControlInformation" style="stroke:#181818;stroke-width:2.0;"/><ellipse cx="354.942" cy="781.5664" fill="#FFFFFF" rx="8" ry="8" style="stroke:#181818;stroke-width:2.0;"/><line style="stroke:#181818;stroke-width:2.0;" x1="357.0541" x2="352.83" y1="789.2826" y2="773.8502"/><line style="stroke:#181818;stroke-width:2.0;" x1="347.2259" x2="362.6582" y1="783.6784" y2="779.4544"/></g><!--link GenericCardSelectionExtension to FileControlInformation--><g id="link_GenericCardSelectionExtension_FileControlInformation"><path codeLine="129" d="M369.4,773.7502 C377.9,799.1102 386.62,825.1302 394.19,847.6902 " fill="none" id="GenericCardSelectionExtension-to-FileControlInformation" style="stroke:#27AE60;stroke-width:2.0;stroke-dasharray:7.0,7.0;"/><polygon fill="#27AE60" points="395.79,852.4502,396.7209,842.6455,394.2003,847.7097,389.1361,845.189,395.79,852.4502" style="stroke:#27AE60;stroke-width:2.0;"/><polygon fill="#000000" points="389.5894,818.1264,389.5006,808.6162,383.9277,810.4847,389.5894,818.1264" style="stroke:#000000;stroke-width:1.0;"/><text fill="#000000" font-family="sans-serif" font-size="13" lengthAdjust="spacing" textLength="21" x="397" y="818.7686">use</text></g><!--link CardTransactionManager to ChannelControl--><g id="link_CardTransactionManager_ChannelControl"><path codeLine="131" d="M939.66,756.8902 C910.8,794.8002 879.14,836.3802 855.79,867.0502 " fill="none" id="CardTransactionManager-to-ChannelControl" style="stroke:#27AE60;stroke-width:2.0;stroke-dasharray:7.0,7.0;"/><polygon fill="#27AE60" points="852.69,871.1102,861.3282,866.3793,855.7219,867.1344,854.9668,861.5282,852.69,871.1102" style="stroke:#27AE60;stroke-width:2.0;"/><polygon fill="#000000" points="901.9712,817.364,909.7887,811.9476,905.112,808.387,901.9712,817.364" style="stroke:#000000;stroke-width:1.0;"/><text fill="#000000" font-family="sans-serif" font-size="13" lengthAdjust="spacing" textLength="21" x="914" y="818.7686">use</text></g><!--link CardTransactionManager to TransactionException--><g id="link_CardTransactionManager_TransactionException"><path codeLine="132" d="M1055.6,756.8902 C1070.38,791.5702 1086.47,829.3402 1099.1,859.0002 " fill="none" id="CardTransactionManager-to-TransactionException" style="stroke:#2C3E50;stroke-width:2.0;stroke-dasharray:7.0,7.0;"/><polygon fill="#2C3E50" points="1101.1,863.6902,1101.2313,853.8423,1099.1304,859.0945,1093.8781,856.9936,1101.1,863.6902" style="stroke:#2C3E50;stroke-width:2.0;"/><polygon fill="#000000" points="1086.9596,817.9857,1086.1184,808.5124,1080.7108,810.8161,1086.9596,817.9857" style="stroke:#000000;stroke-width:1.0;"/><text fill="#000000" font-family="sans-serif" font-size="13" lengthAdjust="spacing" textLength="31" x="1094" y="818.7686">throw</text></g><!--SRC=[jLXHSzeu47xdL-YIXoOaa0H8QHYE6MFBBTCK6A3jTUvk6CKMn1SZUIIx2PFfVx-LR8Fj66XwSpp9gq_Vjrhjhcn2B_Hf1S7l8rq7FaKrzA07DOS8jxQaZ0hFgVr3lfEQxzt1TBD-MJz39utBHhDsTLcxR9rMA7DHg8agRz3llwFP1_m9mm0UJHxvD18IUL96L2ANeWww3yD0TYukxiELxt2V2uUxLDOTlhfOY8kGtFcKH3KNV8XNbvXWABqbgmK-2IyglxbquJ6ApFdx2VvsXUntzerzKp0taDsmctQhO6uYV8tRk8Xk8QjjzIshOBv6fc7QLgDWVelwbjaqsndpxM3u4JLRD- -iViRwUOfHestWjvSPu-p3PFGLDSmclhvK8QpLq3HS-n2ky9w4oENiJOWUkNX0ZrvuZnXzHD-fa1vdY2yGX825qSg7PHNvuB602B92CgI2yd0TKAFFXKk5gGADZeqRoxJiKk0W1-otZ3Q-BWMQUKRBkketIe4u1yJzcoP8w_tXeQNypQmoVI9bZ9_TUyu3erAYBAqX17_CJW7JD-hx_F452t4Ube97p4sKRMnZ4vUB9H2hPPYN5b1Eg7k0hziLrEtrWDR25ZRtq6wGkDs2zAZSUv3_gN4R9b0THmAAxg1me65QkuLDkxrNUmj-XrijmqhbD_QS1tT-T5XVWVH- -lQrtT-hdaAJ4aYq4sjE-RsWb1sKNYgKrhwnszZUgxt19gMMYAVcelhwPyJNMjk0FCA7j3KqAUUjz3gl7BTASpISuU5CDqkVBdKdvO5koFEvPfGeji_dgAFjLPZ1Jq34Y8-CyG09kW1Mvb2vnLHHLtVMZWvuzmusr5dhOkbLgwh3yw0cA06tuzvE0gzQxLueN6_3e5SvQyAIDUfMuAiLPuVMS47OacvNIIg-Umu5HSaZ0OFqFjckLpkFDrgf160XIugEk5ZMgUDxWQJrcAgkhgLwSYqT8I9HCaRFseKpHnq8EkfsCzx7Lvi9ArNSc6gSYMolznUhLg4D4n-SVnzJRK3Js6qjisCkarMn0-e7ZIqTdZtBa8IUysCdmPA60mOWE3zqSbhPhimUOB9ORM5AVUg4GB1XGWwSP4ZtOu1wovmz98MV9ESo5dpX-RGOfKHW7nATxCothKDG7WF9iyz0dPsDvReNcgftZlPlQRblDhDT1PZ1PYNHa4-4GNA9pAOoax2FekyJNIQRK6mivoW7dQw821K-YyoS9rnwrMf99aBUPVDb6WgFBLLMcBhKZC3xajprsIFSmc9d3iAKvalGZxXeF0RjP44W0uzonzZTSP3PG6SgwQSpDbjHEmxt-KKXg5kpR0s2H0Jt-sjbXRmCEU3HIR9r9sCigQw3f6F-ICM8MIGa6yvWQvj0othw5LvhCIGhgFYxTKZ__1iHpptzTPB4hzUHI1hQKC8Znuc4lZxGIU5vaNjyFRN9MIYuFs0BBbOaBgyTzaMfEIEvFrk8wquZ1sv0kOZyANJSI7w5IncTG6OZkNdE9JrbqMgJxseh-Tth72q4fApPPma6a-ciREBMABSFyH-bzl44VncCFayFklioP1ktIu9yo7rpK6uUbve_MQLR6iqdU3eU3QUulCFiwCRF1_jr82YySr4ZSADjniE3wfE4kQUl8qZhxZyH87ZRE4Twv36PZ8AhTD281o3ZGgiOi7FKLtQVxcWO-sKdaFP4KlEUC4Rz_Bl2hIV3RgpL0pnNbQ3Sb3Ek9E7JYQnb_evEU98qGKxkCRs2J-4B5Bww9CguXPyS6gX1GJu-agBy1_eKJ_m_ycN5KSAlgw8WkQSQDCD7ZCVpqHWFIsVDsz4KpmrxXYTPHpQldvE8XTwARhpDlscMxKVxM3QHhOtI-RGQLX1so9ZJry7FqKm5MVt50hTb96dQ9N-eRnH3Ikvukd_8v9lbrlWs-Xn_iknwgQtNUmVkz-Fa7v9EyXw6Udl9TfH62Kjbl-uPl8Vbk_g11KgzS0qSn__ZT104Q-lt0S6N_VWdXKiQUS61oexewC3baxwmSi_2qjGvJl-iwiILgSHrJandtsxZl_pIZxVqk-mu_LFk6VBfNm00]--></g></svg>